<?xml version="1.0" encoding="UTF-8" standalone="no"?>
<!-- Created with Inkscape (http://www.inkscape.org/) -->

<svg
   width="125mm"
   height="67mm"
   viewBox="0 0 125 67"
   version="1.1"
   id="svg5"
   sodipodi:docname="1d-distribution.svg"
   inkscape:version="1.1.2 (0a00cf5339, 2022-02-04)"
   xmlns:inkscape="http://www.inkscape.org/namespaces/inkscape"
   xmlns:sodipodi="http://sodipodi.sourceforge.net/DTD/sodipodi-0.dtd"
   xmlns:xlink="http://www.w3.org/1999/xlink"
   xmlns="http://www.w3.org/2000/svg"
   xmlns:svg="http://www.w3.org/2000/svg">
  <sodipodi:namedview
     id="namedview7"
     pagecolor="#ffffff"
     bordercolor="#666666"
     borderopacity="1.0"
     inkscape:pageshadow="2"
     inkscape:pageopacity="0.0"
     inkscape:pagecheckerboard="0"
     inkscape:document-units="mm"
     showgrid="false"
     inkscape:zoom="1.4948513"
     inkscape:cx="225.44048"
     inkscape:cy="170.58553"
     inkscape:window-width="1920"
     inkscape:window-height="1011"
     inkscape:window-x="1920"
     inkscape:window-y="32"
     inkscape:window-maximized="0"
     inkscape:current-layer="layer1" />
  <defs
     id="defs2">
    <inkscape:path-effect
       effect="spiro"
       id="path-effect9134"
       is_visible="true"
       lpeversion="1" />
    <inkscape:path-effect
       effect="spiro"
       id="path-effect1578"
       is_visible="true"
       lpeversion="1" />
    <marker
       style="overflow:visible"
       id="Arrow2Lend"
       refX="0"
       refY="0"
       orient="auto"
       inkscape:stockid="Arrow2Lend"
       inkscape:isstock="true">
      <path
         transform="matrix(-1.1,0,0,-1.1,-1.1,0)"
         d="M 8.7185878,4.0337352 -2.2072895,0.01601326 8.7185884,-4.0017078 c -1.7454984,2.3720609 -1.7354408,5.6174519 -6e-7,8.035443 z"
         style="fill:context-stroke;fill-rule:evenodd;stroke:context-stroke;stroke-width:0.625;stroke-linejoin:round"
         id="path882" />
    </marker>
    <inkscape:path-effect
       effect="bspline"
       id="path-effect859"
       is_visible="true"
       lpeversion="1"
       weight="33.333333"
       steps="2"
       helper_size="0"
       apply_no_weight="true"
       apply_with_weight="true"
       only_selected="false" />
    <inkscape:path-effect
       effect="spiro"
       id="path-effect1578-7"
       is_visible="true"
       lpeversion="1" />
    <inkscape:path-effect
       effect="spiro"
       id="path-effect1578-7-6"
       is_visible="true"
       lpeversion="1" />
    <inkscape:path-effect
       effect="spiro"
       id="path-effect1578-2"
       is_visible="true"
       lpeversion="1" />
    <inkscape:path-effect
       effect="spiro"
       id="path-effect1578-75"
       is_visible="true"
       lpeversion="1" />
    <inkscape:path-effect
       effect="spiro"
       id="path-effect1578-7-9"
       is_visible="true"
       lpeversion="1" />
    <inkscape:path-effect
       effect="spiro"
       id="path-effect1578-3"
       is_visible="true"
       lpeversion="1" />
    <inkscape:path-effect
       effect="spiro"
       id="path-effect1578-7-61"
       is_visible="true"
       lpeversion="1" />
    <symbol
       id="g8DC4D98897396CB4356C2922B061B4F0"
       overflow="visible">
      <path
         d="M 3.751,1.474 V 0.902 C 3.751,0.759 3.74,0.671 3.707,0.616 3.652,0.495 3.3439999,0.429 2.761,0.429 H 2.354 V 0 C 2.651,0.022 3.2779999,0.033 4.235,0.033 5.203,0.033 5.83,0.022 6.127,0 V 0.429 H 5.72 C 5.137,0.429 4.829,0.484 4.774,0.605 4.741,0.66 4.73,0.759 4.73,0.902 v 0.572 c 1.639,0.209 2.453,1.254 2.453,3.135 0,0.143 0.022,0.352 0.077,0.627 0.055,0.33 0.22,0.517 0.484,0.55 C 7.865,5.797 7.92,5.852 7.92,5.9509997 7.92,6.05 7.821,6.105 7.612,6.105 H 7.205 C 6.985,6.105 6.809,6.061 6.666,5.984 6.358,5.786 6.204,5.258 6.193,4.411 6.182,2.9589999 5.687,2.101 4.73,1.837 v 4.774 c 0,0.143 0.011,0.231 0.044,0.286 0.055,0.121 0.363,0.187 0.946,0.187 H 6.127 V 7.513 C 5.83,7.491 5.203,7.48 4.246,7.48 3.2779999,7.48 2.651,7.491 2.354,7.513 V 7.084 H 2.761 C 3.3439999,7.084 3.652,7.029 3.707,6.908 3.74,6.853 3.751,6.754 3.751,6.611 V 1.837 C 2.816,2.112 2.354,3.014 2.354,4.5429997 2.354,5.588 2.013,6.105 1.342,6.105 H 0.946 C 0.737,6.105 0.627,6.05 0.627,5.9509997 0.627,5.863 0.671,5.808 0.759,5.786 0.891,5.775 0.99,5.731 1.067,5.676 1.265,5.522 1.364,5.082 1.364,4.345 1.364,2.728 2.299,1.683 3.751,1.474 Z"
         id="path28174" />
    </symbol>
    <symbol
       id="g979498DE9C7BC60DA62D05AC675FC8A"
       overflow="visible">
      <path
         d="m 0.9163,3.2648 c 0.2463999,0 0.4312,0.1848 0.4312,0.4312 0,0.2772 -0.1463,0.4235 -0.4312,0.4312 0.1694,0.3619 0.5544,0.6545 1.0549,0.6545 0.6776,0 1.1242,-0.5082 1.1242,-1.1858 C 3.0954,3.2263 2.9645,2.8720999 2.695,2.5256 2.5641,2.3485 2.464,2.2253 2.3947,2.156 L 0.5698,0.3465 C 0.4697,0.2541 0.4851,0.231 0.4851,0 H 3.6575 L 3.8962,1.4476 H 3.5728 C 3.5189,1.0395 3.4573,0.80079997 3.388,0.7469 3.3495,0.7238 3.1108,0.7084 2.6565,0.7084 H 1.3475 C 1.8634,1.1626999 2.3408,1.5708 2.7951,1.9327 3.1416,2.2022 3.388,2.4409 3.542,2.6488 3.773,2.9491 3.8885,3.2648 3.8885,3.5959 3.8885,4.0733 3.7037,4.4506 3.3264,4.7278 2.9953,4.9818997 2.5795,5.1128 2.0867,5.1128 1.6632,5.1128 1.3013,4.9896 0.9856,4.7432 0.6545,4.4737 0.4851,4.1349 0.4851,3.7191 c 0,-0.2618 0.1925,-0.4543 0.4312,-0.4543 z"
         id="path28177" />
    </symbol>
  </defs>
  <g
     inkscape:label="Layer 1"
     inkscape:groupmode="layer"
     id="layer1">
    <path
       id="rect4688-1-9"
       style="fill:#647585;fill-opacity:0.372549;stroke:none;stroke-width:0.353444;stroke-linecap:round;stroke-linejoin:bevel;stroke-miterlimit:4;stroke-dasharray:none;stroke-dashoffset:0;stroke-opacity:0.37471;paint-order:stroke fill markers"
       d="m 54.243913,15.827255 c 0.19829,-0.006 0.39692,-0.009 0.59531,-0.008 0.20407,7.8e-4 0.40794,0.005 0.61185,0.0129 0.20391,0.008 0.40782,0.0199 0.61133,0.0351 0.20351,0.0152 0.40642,0.034 0.60927,0.0563 0.20284,0.0224 0.40526,0.048 0.60719,0.0775 0.20193,0.0295 0.40334,0.0626 0.6041,0.0992 0.20076,0.0366 0.40114,0.0767 0.60048,0.1204 0.19934,0.0437 0.39765,0.0909 0.59532,0.1416 0.21143,0.0543 0.42192,0.11289 0.63096,0.17518 0.20905,0.0623 0.41676,0.12831 0.62322,0.19844 0.20647,0.0701 0.41179,0.14393 0.61547,0.22169 0.20368,0.0778 0.40599,0.15974 0.60668,0.24495 0.20069,0.0852 0.39988,0.17367 0.59738,0.26613 0.1975,0.0925 0.39294,0.18883 0.58704,0.28835 0.19411,0.0995 0.38672,0.20264 0.57723,0.30903 0.19051,0.10638 0.37914,0.21612 0.56586,0.32918 0.18671,0.11306 0.37126,0.22927 0.55397,0.34881 0.18271,0.11954 0.36357,0.24212 0.54208,0.36794 0.17851,0.12582 0.35506,0.25462 0.52917,0.38654 0.1741,0.13191 0.34572,0.26681 0.51521,0.40463 0.1695,0.13781 0.33658,0.27868 0.50126,0.4222 0.16469,0.14352 0.32712,0.2897 0.4868,0.43873 0.15967,0.14903 0.31682,0.30092 0.47129,0.45527 0.15446,0.15435 0.30622,0.3113 0.455266,0.47077 0.16594,0.17756 0.3282,0.3582 0.4873,0.54106 0.15911,0.18285 0.31495,0.36826 0.46768,0.55603 0.15272,0.18778 0.30226,0.37769 0.44906,0.57 0.14681,0.1923 0.29067,0.38698 0.43202,0.58342 0.14135,0.19644 0.28016,0.39461 0.41651,0.5948 0.13635,0.20019 0.27023,0.40209 0.40204,0.60564 0.13182,0.20356 0.2619,0.40894 0.38964,0.61547 0.12774,0.20653 0.25363,0.41411 0.37776,0.62322 0.12412,0.20911 0.24644,0.41966 0.36742,0.63097 0.12097,0.21131 0.24035,0.42354 0.35863,0.63665 0.23656,0.42622 0.46805,0.85563 0.6966,1.28674 0.22855,0.43112 0.45428,0.86418 0.67851,1.29708 0.22423,0.4329 0.44717,0.86551 0.67076,1.29708 0.27644,0.53358 0.55499,1.06674 0.83664,1.59835 0.28165,0.53161 0.56624,1.06175 0.85525,1.58957 0.28901,0.52782 0.58255,1.0534 0.88108,1.57562 0.14926,0.2611 0.29961,0.52146 0.45165,0.78083 0.15205,0.25936 0.30586,0.51775 0.46096,0.77514 0.15509,0.25739 0.31132,0.51376 0.46974,0.76895 0.15842,0.25519 0.31858,0.50895 0.48059,0.76171 0.16201,0.25276 0.32608,0.50437 0.49196,0.75447 0.16587,0.25011 0.33384,0.49899 0.50385,0.74621 0.17,0.24722 0.34185,0.4928 0.51624,0.73691 0.1744,0.24411 0.35114,0.48683 0.53021,0.7276 0.17906,0.24078 0.36066,0.47955 0.54466,0.71676 0.18401,0.2372 0.37045,0.47248 0.55966,0.7059 0.14715,0.18152 0.29614,0.36217 0.447,0.54105 0.15086,0.17887 0.30384,0.3564 0.45889,0.53175 0.15505,0.17534 0.31209,0.34842 0.4718,0.51934 0.15972,0.17094 0.32193,0.33925 0.4868,0.50488 0.16487,0.16564 0.33231,0.32888 0.50281,0.48835 0.1705,0.15946 0.34429,0.31526 0.5209,0.46767 0.1766,0.15241 0.3563,0.30098 0.5395,0.44545 0.1832,0.14447 0.3699,0.28499 0.56017,0.42065 0.0951,0.0678 0.19078,0.13461 0.28784,0.19998 0.0971,0.0654 0.19513,0.12948 0.29404,0.19224 0.0989,0.0628 0.19904,0.12397 0.29972,0.18397 0.10068,0.06 0.20201,0.11863 0.30438,0.1757 0.10236,0.0571 0.20556,0.11241 0.30954,0.1664 0.10398,0.054 0.20868,0.10686 0.31419,0.15761 0.10551,0.0507 0.21188,0.0994 0.31884,0.14676 0.10696,0.0473 0.21465,0.0931 0.32298,0.13694 0.10833,0.0438 0.21749,0.086 0.32711,0.12609 0.10963,0.0401 0.2199,0.078 0.33073,0.11421 0.11084,0.0362 0.22186,0.0707 0.33383,0.10283 0.11197,0.0322 0.22443,0.0619 0.33745,0.0899 0.11302,0.028 0.22655,0.0539 0.34055,0.0775 0.11399,0.0236 0.22876,0.0455 0.34364,0.0646 0.11489,0.0191 0.23002,0.0356 0.34572,0.0501 0.1157,0.0145 0.23186,0.0265 0.3483,0.0362 0.0998,0.008 0.19975,0.015 0.29972,0.0196 0.1,0.005 0.2002,0.007 0.30024,0.008 0.10004,10e-4 0.19972,4e-4 0.29973,-0.002 0.1,-0.002 0.20038,-0.006 0.30024,-0.0124 0.0999,-0.006 0.19959,-0.0138 0.2992,-0.0233 0.0996,-0.009 0.19892,-0.0203 0.29818,-0.0331 0.0992,-0.0128 0.19834,-0.0273 0.29714,-0.0434 0.0988,-0.0162 0.19736,-0.0343 0.29559,-0.0537 0.0982,-0.0195 0.19597,-0.0403 0.29352,-0.0631 0.0975,-0.0227 0.19468,-0.0474 0.29145,-0.0734 0.0968,-0.0259 0.19299,-0.0531 0.28887,-0.0822 0.0959,-0.0291 0.1914,-0.0598 0.28629,-0.092 0.0949,-0.0322 0.1894,-0.066 0.28319,-0.10128 0.0938,-0.0353 0.18699,-0.0723 0.27957,-0.11059 0.0926,-0.0383 0.18468,-0.0781 0.27595,-0.11937 0.0913,-0.0413 0.18145,-0.084 0.2713,-0.12816 0.12405,-0.061 0.24699,-0.12495 0.36845,-0.19069 0.12147,-0.0657 0.2417,-0.13328 0.36122,-0.20257 0.23905,-0.13857 0.47488,-0.28315 0.71004,-0.42891 0.23515,-0.14577 0.46948,-0.29302 0.7059,-0.43667 0.1182,-0.0718 0.23707,-0.14284 0.35656,-0.21239 0.11949,-0.0696 0.2398,-0.13749 0.36122,-0.2036 0.12142,-0.0661 0.2447,-0.13018 0.36949,-0.19172 0.12478,-0.0616 0.25101,-0.12068 0.37878,-0.17622 0.12778,-0.0555 0.25667,-0.10744 0.38706,-0.15555 0.1304,-0.0481 0.26217,-0.092 0.39481,-0.13125 0.132641,-0.0393 0.266511,-0.0739 0.401011,-0.10284 0.0673,-0.0145 0.13441,-0.0276 0.20205,-0.0393 0.0677,-0.0116 0.13561,-0.0219 0.20361,-0.0305 0.068,-0.009 0.13634,-0.0158 0.20464,-0.0212 0.0683,-0.005 0.1366,-0.009 0.20515,-0.0114 0.0686,-0.002 0.13743,-0.002 0.20619,-5.2e-4 0.0688,0.002 0.13726,0.005 0.20619,0.01 0.11269,0.009 0.22507,0.0224 0.33642,0.0413 0.11135,0.019 0.22205,0.0434 0.33124,0.0724 0.10919,0.0289 0.21677,0.0627 0.32298,0.10128 0.1062,0.0386 0.21076,0.0819 0.31316,0.12971 0.10239,0.0478 0.20298,0.0999 0.30075,0.15658 0.0978,0.0566 0.19294,0.11733 0.28526,0.18242 0.0923,0.0651 0.18163,0.13457 0.26768,0.20774 0.0861,0.0732 0.16858,0.15013 0.24753,0.23099 0.079,0.0809 0.15422,0.16545 0.22531,0.25322 0.0711,0.0878 0.13815,0.179 0.20102,0.27285 0.0629,0.0939 0.12142,0.19029 0.1757,0.28939 0.0543,0.0991 0.10454,0.20034 0.14986,0.30386 0.0453,0.1035 0.0859,0.20916 0.12196,0.31625 0.036,0.1071 0.0672,0.21572 0.0935,0.32557 0.0263,0.10984 0.0478,0.22102 0.0641,0.33279 0.0163,0.11177 0.0272,0.22407 0.0331,0.33693 H 54.243913 Z" />
    <path
       id="rect4688-1"
       style="fill:#637384;fill-opacity:0.372549;stroke:none;stroke-width:0.353444;stroke-linecap:round;stroke-linejoin:bevel;stroke-miterlimit:4;stroke-dasharray:none;stroke-dashoffset:0;stroke-opacity:0.37471;paint-order:stroke fill markers"
       d="m 54.243918,15.827255 c -0.198297,-0.006 -0.396925,-0.009 -0.595312,-0.008 -0.204071,7.8e-4 -0.407935,0.005 -0.611849,0.0129 -0.203914,0.008 -0.407826,0.0199 -0.611333,0.0351 -0.203504,0.0152 -0.406421,0.034 -0.609264,0.0563 -0.202845,0.0224 -0.405268,0.048 -0.607198,0.0775 -0.20193,0.0295 -0.403336,0.0626 -0.604099,0.0992 -0.20076,0.0366 -0.401137,0.0767 -0.60048,0.1204 -0.199339,0.0437 -0.397645,0.0909 -0.595312,0.1416 -0.211431,0.0543 -0.421921,0.11289 -0.630968,0.17518 -0.20905,0.0623 -0.416753,0.12831 -0.623218,0.19844 -0.206465,0.0701 -0.41179,0.14393 -0.615466,0.22169 -0.203679,0.0778 -0.405992,0.15974 -0.606681,0.24495 -0.20069,0.0852 -0.399884,0.17367 -0.597382,0.26613 -0.197498,0.0925 -0.392938,0.18883 -0.587044,0.28835 -0.194104,0.0995 -0.386715,0.20264 -0.577226,0.30903 -0.190508,0.10638 -0.379145,0.21612 -0.565856,0.32918 -0.186711,0.11306 -0.371261,0.22927 -0.553972,0.34881 -0.18271,0.11954 -0.363577,0.24212 -0.542086,0.36794 -0.178509,0.12582 -0.35506,0.25462 -0.529167,0.38654 -0.174103,0.13191 -0.345715,0.26681 -0.515212,0.40463 -0.169497,0.13781 -0.336574,0.27868 -0.501261,0.4222 -0.16469,0.14352 -0.327115,0.2897 -0.486794,0.43873 -0.159676,0.14903 -0.316825,0.30092 -0.471289,0.45527 -0.154464,0.15435 -0.306221,0.3113 -0.455268,0.47077 -0.165942,0.17756 -0.328205,0.3582 -0.48731,0.54106 -0.159102,0.18285 -0.314947,0.36826 -0.467672,0.55603 -0.152723,0.18778 -0.30226,0.37769 -0.449067,0.57 -0.146807,0.1923 -0.290666,0.38698 -0.432014,0.58342 -0.141349,0.19644 -0.280162,0.39461 -0.416513,0.5948 -0.136353,0.20019 -0.270226,0.40209 -0.402042,0.60564 -0.131818,0.20356 -0.2619,0.40894 -0.389641,0.61547 -0.127741,0.20653 -0.253627,0.41411 -0.377754,0.62322 -0.124126,0.20911 -0.246446,0.41966 -0.367421,0.63097 -0.120973,0.21131 -0.240353,0.42354 -0.358632,0.63665 -0.236562,0.42622 -0.468048,0.85563 -0.696601,1.28674 -0.228552,0.43112 -0.454281,0.86418 -0.67851,1.29708 -0.224229,0.4329 -0.447167,0.86551 -0.670761,1.29708 -0.276442,0.53358 -0.55499,1.06674 -0.836642,1.59835 -0.281649,0.53161 -0.566232,1.06175 -0.855245,1.58957 -0.289012,0.52782 -0.582554,1.0534 -0.881083,1.57562 -0.149262,0.2611 -0.299604,0.52146 -0.451652,0.78083 -0.152045,0.25936 -0.305853,0.51775 -0.460952,0.77514 -0.155098,0.25739 -0.311319,0.51376 -0.469741,0.76895 -0.158419,0.25519 -0.318579,0.50895 -0.480589,0.76171 -0.162012,0.25276 -0.326088,0.50437 -0.491961,0.75447 -0.16587,0.25011 -0.333843,0.49899 -0.503843,0.74621 -0.17,0.24722 -0.34185,0.4928 -0.516247,0.73691 -0.174401,0.24411 -0.351137,0.48683 -0.530202,0.7276 -0.179064,0.24078 -0.360666,0.47955 -0.544668,0.71676 -0.184005,0.2372 -0.370449,0.47248 -0.559657,0.7059 -0.147151,0.18152 -0.296141,0.36217 -0.447001,0.54105 -0.15086,0.17887 -0.303839,0.3564 -0.458888,0.53175 -0.155048,0.17534 -0.312086,0.34842 -0.471805,0.51934 -0.159718,0.17094 -0.321924,0.33925 -0.486791,0.50488 -0.16487,0.16564 -0.332314,0.32888 -0.502811,0.48835 -0.1705,0.15946 -0.344292,0.31526 -0.520901,0.46767 -0.176607,0.15241 -0.356302,0.30098 -0.539502,0.44545 -0.183197,0.14447 -0.369903,0.28499 -0.56017,0.42065 -0.09514,0.0678 -0.190778,0.13461 -0.28784,0.19998 -0.09706,0.0654 -0.195128,0.12948 -0.294037,0.19224 -0.09891,0.0628 -0.199046,0.12397 -0.299725,0.18397 -0.10068,0.06 -0.202005,0.11863 -0.304374,0.1757 -0.102368,0.0571 -0.205563,0.11241 -0.309542,0.1664 -0.103978,0.054 -0.208685,0.10686 -0.314192,0.15761 -0.105508,0.0507 -0.211884,0.0994 -0.318845,0.14676 -0.106957,0.0473 -0.214645,0.0931 -0.322976,0.13694 -0.108331,0.0438 -0.217491,0.086 -0.327113,0.12609 -0.109622,0.0401 -0.219895,0.078 -0.330729,0.11421 -0.110834,0.0362 -0.221861,0.0707 -0.33383,0.10283 -0.111966,0.0322 -0.224425,0.0619 -0.337447,0.0899 -0.113019,0.028 -0.226552,0.0539 -0.340548,0.0775 -0.113993,0.0236 -0.228759,0.0455 -0.343646,0.0646 -0.11489,0.0191 -0.230013,0.0356 -0.345718,0.0501 -0.115702,0.0145 -0.231859,0.0265 -0.348297,0.0362 -0.0998,0.008 -0.199755,0.015 -0.299723,0.0196 -0.09997,0.005 -0.200202,0.007 -0.300241,0.008 -0.100039,10e-4 -0.199721,4e-4 -0.299723,-0.002 -0.100002,-0.002 -0.200382,-0.006 -0.300241,-0.0124 -0.09986,-0.006 -0.199596,-0.0138 -0.299207,-0.0233 -0.09961,-0.009 -0.198919,-0.0203 -0.298172,-0.0331 -0.09925,-0.0128 -0.198347,-0.0273 -0.29714,-0.0434 -0.09879,-0.0162 -0.197366,-0.0343 -0.29559,-0.0537 -0.09822,-0.0195 -0.195972,-0.0403 -0.293521,-0.0631 -0.09755,-0.0227 -0.194688,-0.0474 -0.291454,-0.0734 -0.09677,-0.0259 -0.192993,-0.0531 -0.288872,-0.0822 -0.09588,-0.0291 -0.1914,-0.0598 -0.286287,-0.092 -0.09489,-0.0322 -0.1894,-0.066 -0.283187,-0.10128 -0.09379,-0.0353 -0.186989,-0.0723 -0.279569,-0.11059 -0.09258,-0.0383 -0.184684,-0.0781 -0.275952,-0.11937 -0.09127,-0.0413 -0.181452,-0.084 -0.271301,-0.12816 -0.12405,-0.061 -0.246989,-0.12495 -0.368454,-0.19069 -0.121465,-0.0657 -0.241694,-0.13328 -0.36122,-0.20257 -0.239048,-0.13857 -0.474879,-0.28315 -0.710033,-0.42891 -0.235154,-0.14577 -0.469484,-0.29302 -0.7059,-0.43667 -0.118208,-0.0718 -0.237077,-0.14284 -0.356566,-0.21239 -0.119491,-0.0696 -0.239802,-0.13749 -0.36122,-0.2036 -0.1214166,-0.0661 -0.2447016,-0.13018 -0.3694846,-0.19172 -0.124785,-0.0616 -0.251013,-0.12068 -0.378788,-0.17622 -0.127778,-0.0555 -0.256664,-0.10744 -0.387056,-0.15555 -0.130395,-0.0481 -0.262173,-0.092 -0.394809,-0.13125 -0.132636,-0.0393 -0.266507,-0.0739 -0.40101,-0.10284 -0.06725,-0.0145 -0.134406,-0.0276 -0.202055,-0.0393 -0.06765,-0.0116 -0.135607,-0.0219 -0.203605,-0.0305 -0.068,-0.009 -0.136339,-0.0158 -0.204639,-0.0212 -0.0683,-0.005 -0.136599,-0.009 -0.205155,-0.0114 -0.06856,-0.002 -0.137425,-0.002 -0.20619,-5.2e-4 -0.06876,0.002 -0.137261,0.005 -0.206187,0.01 -0.112691,0.009 -0.225065,0.0224 -0.336415,0.0413 -0.11135,0.019 -0.222057,0.0434 -0.331245,0.0724 -0.109189,0.0289 -0.216773,0.0627 -0.322977,0.10128 -0.106204,0.0386 -0.210762,0.0819 -0.313161,0.12971 -0.102396,0.0478 -0.202986,0.0999 -0.300755,0.15658 -0.09777,0.0566 -0.192934,0.11733 -0.285255,0.18242 -0.09232,0.0651 -0.181636,0.13457 -0.267684,0.20774 -0.08605,0.0732 -0.168574,0.15013 -0.247531,0.23099 -0.07895,0.0809 -0.154215,0.16545 -0.225309,0.25322 -0.07109,0.0878 -0.138152,0.179 -0.201019,0.27285 -0.06287,0.0939 -0.12142,0.19029 -0.175702,0.28939 -0.05428,0.0991 -0.104532,0.20034 -0.14986,0.30386 -0.04533,0.1035 -0.08594,0.20916 -0.121957,0.31625 -0.03601,0.1071 -0.0672,0.21572 -0.09354,0.32557 -0.02633,0.10984 -0.04779,0.22102 -0.06408,0.33279 -0.01629,0.11177 -0.02719,0.22407 -0.03307,0.33693 H 54.243913 Z" />
    <path
       style="fill:none;stroke:#676767;stroke-width:0.264583px;stroke-linecap:butt;stroke-linejoin:miter;stroke-opacity:1"
       d="m 3.4749214,49.823995 c 0.047044,-0.902895 0.4329633,-1.784146 1.0646022,-2.431034 0.6316389,-0.646889 1.5034349,-1.053717 2.4049508,-1.122283 1.1028286,-0.08388 2.187915,0.321578 3.1592586,0.8505 0.971344,0.528921 1.870706,1.186439 2.863107,1.674707 1.437611,0.707314 3.063596,1.042798 4.660297,0.910264 1.86302,-0.15464 3.637001,-0.935995 5.159159,-2.021257 1.522158,-1.085262 2.810366,-2.466719 3.987571,-3.91894 3.02733,-3.734568 5.371061,-7.969453 7.582596,-12.23804 1.788753,-3.452556 3.538894,-6.997386 6.193967,-9.838224 2.384763,-2.551616 5.475702,-4.459555 8.858594,-5.327819 1.581332,-0.40587 3.220294,-0.586505 4.852061,-0.53476"
       id="path1576"
       inkscape:path-effect="#path-effect1578"
       inkscape:original-d="m 3.4749214,49.823995 c 1.156782,-1.184175 2.3133,-2.368614 3.469553,-3.553317 1.15625,-1.184704 4.0151756,1.683737 6.0223656,2.525207 2.007193,0.84147 3.107129,0.607107 4.660297,0.910264 1.553167,0.303157 6.098084,-3.959867 9.14673,-5.940197 3.048646,-1.980332 5.055328,-8.15843 7.582596,-12.23804 2.527265,-4.07961 4.129577,-6.558552 6.193967,-9.838224 2.064393,-3.279675 5.905995,-3.551616 8.858594,-5.327819 2.952599,-1.776207 3.234973,-0.356243 4.852061,-0.53476" />
    <path
       style="fill:none;stroke:#676767;stroke-width:0.264583px;stroke-linecap:butt;stroke-linejoin:miter;stroke-opacity:1"
       d="m 105.04725,49.823995 c -0.047,-0.902894 -0.43296,-1.784145 -1.0646,-2.431034 -0.63164,-0.646888 -1.50343,-1.053716 -2.40495,-1.122283 -1.10283,-0.08388 -2.187917,0.321577 -3.159262,0.850499 -0.971344,0.528921 -1.870707,1.18644 -2.863109,1.674708 -1.437612,0.707315 -3.063598,1.042798 -4.6603,0.910264 -1.86302,-0.15464 -3.637001,-0.935995 -5.15916,-2.021257 -1.522158,-1.085262 -2.810365,-2.466719 -3.98757,-3.91894 -3.027329,-3.734568 -5.371056,-7.969453 -7.58259,-12.23804 -1.788753,-3.452556 -3.538896,-6.997386 -6.19397,-9.838224 -2.384764,-2.551615 -5.475702,-4.459555 -8.858594,-5.327819 -1.581332,-0.40587 -3.220293,-0.586505 -4.85206,-0.53476"
       id="path1576-5"
       inkscape:path-effect="#path-effect1578-7"
       inkscape:original-d="m 105.04725,49.823995 c -1.15678,-1.184175 -2.3133,-2.368614 -3.46955,-3.553317 -1.15625,-1.184704 -4.015181,1.683737 -6.022371,2.525207 -2.00719,0.84147 -3.10713,0.607107 -4.6603,0.910264 -1.55316,0.303157 -6.09808,-3.959867 -9.14673,-5.940197 -3.04864,-1.980332 -5.05532,-8.15843 -7.58259,-12.23804 -2.52726,-4.07961 -4.12958,-6.558552 -6.19397,-9.838224 -2.064394,-3.279675 -5.905994,-3.551616 -8.858594,-5.327819 -2.9526,-1.776207 -3.23497,-0.356243 -4.85206,-0.53476" />
    <g
       id="path857">
      <path
         style="color:#000000;fill:#000000;-inkscape-stroke:none"
         d="m 3.4746094,49.574219 v 0.5 H 123.97852 v -0.5 z"
         id="path4135" />
      <g
         id="g4125">
        <g
           id="path4127">
          <path
             style="color:#000000;fill:#000000;fill-rule:evenodd;stroke-width:0.34375;stroke-linejoin:round;-inkscape-stroke:none"
             d="m 118.63358,47.605441 6.00923,2.209747 -6.00923,2.209746 c 0.96002,-1.304633 0.95449,-3.089598 0,-4.419493 z"
             id="path4131" />
          <path
             style="color:#000000;fill:#000000;fill-rule:evenodd;stroke-linejoin:round;-inkscape-stroke:none"
             d="m 118.69336,47.443359 a 0.17189219,0.17189219 0 0 0 -0.19922,0.261719 c 0.91219,1.270964 0.91743,2.974649 0.002,4.21875 a 0.17189219,0.17189219 0 0 0 0.19727,0.261719 l 6.00781,-2.208985 a 0.17189219,0.17189219 0 0 0 0,-0.322265 z m 0.20312,0.44336 5.25,1.929687 -5.25,1.927735 c 0.69837,-1.203631 0.69618,-2.637981 0,-3.857422 z"
             id="path4133" />
        </g>
      </g>
    </g>
    <path
       style="fill:none;stroke:#738ca5;stroke-width:0.5;stroke-linecap:butt;stroke-linejoin:miter;stroke-miterlimit:4;stroke-dasharray:none;stroke-dashoffset:0;stroke-opacity:1"
       d="M 3.4749214,5.9122106 V 61.46567"
       id="path1242"
       sodipodi:nodetypes="cc" />
    <path
       style="fill:none;stroke:#738ca5;stroke-width:0.5;stroke-linecap:butt;stroke-linejoin:miter;stroke-miterlimit:4;stroke-dasharray:none;stroke-dashoffset:0;stroke-opacity:1"
       d="M 105.0535,5.9122106 V 61.46567"
       id="path1242-4"
       sodipodi:nodetypes="cc" />
    <g
       id="g9070"
       transform="translate(7.7122914,-39.380085)" />
    <text
       xml:space="preserve"
       style="font-size:7.05556px;line-height:1.25;font-family:Roboto;-inkscape-font-specification:Roboto;letter-spacing:0px;word-spacing:0px;stroke-width:0.264583"
       x="1.7145592"
       y="4.9388118"
       id="text2108"><tspan
         sodipodi:role="line"
         id="tspan2106"
         style="font-style:normal;font-variant:normal;font-weight:normal;font-stretch:normal;font-size:7.05556px;font-family:'Latin Modern Math';-inkscape-font-specification:'Latin Modern Math';stroke-width:0.264583"
         x="1.7145592"
         y="4.9388118">0</tspan></text>
    <text
       xml:space="preserve"
       style="font-size:7.05556px;line-height:1.25;font-family:Roboto;-inkscape-font-specification:Roboto;letter-spacing:0px;word-spacing:0px;stroke-width:0.264583"
       x="103.26139"
       y="5.0008998"
       id="text2108-3"><tspan
         sodipodi:role="line"
         id="tspan2106-5"
         style="font-style:normal;font-variant:normal;font-weight:normal;font-stretch:normal;font-size:7.05556px;font-family:'Latin Modern Math';-inkscape-font-specification:'Latin Modern Math';stroke-width:0.264583"
         x="103.26139"
         y="5.0008998">1</tspan></text>
    <text
       xml:space="preserve"
       style="font-size:7.05556px;line-height:1.25;font-family:Roboto;-inkscape-font-specification:Roboto;letter-spacing:0px;word-spacing:0px;stroke-width:0.264583"
       x="1.6122535"
       y="66.118057"
       id="text19258"><tspan
         sodipodi:role="line"
         id="tspan19256"
         style="font-style:normal;font-variant:normal;font-weight:normal;font-stretch:normal;font-size:7.05556px;font-family:'Latin Modern Math';-inkscape-font-specification:'Latin Modern Math';stroke-width:0.264583"
         x="1.6122535"
         y="66.118057">x</tspan></text>
    <text
       xml:space="preserve"
       style="font-size:7.05556px;line-height:1.25;font-family:Roboto;-inkscape-font-specification:Roboto;letter-spacing:0px;word-spacing:0px;stroke-width:0.264583"
       x="101.15178"
       y="66.055984"
       id="text19258-7"><tspan
         sodipodi:role="line"
         id="tspan19256-8"
         style="font-style:normal;font-variant:normal;font-weight:normal;font-stretch:normal;font-size:7.05556px;font-family:'Latin Modern Math';-inkscape-font-specification:'Latin Modern Math';stroke-width:0.264583"
         x="101.15178"
         y="66.055984">dx</tspan></text>
    <g
       id="g28172"
       transform="matrix(0.81095873,0,0,0.81095873,11.534594,-47.68144)">
      <g
         transform="translate(70.86625,78.37925)"
         id="g28164">
        <g
           class="typst-text"
           transform="scale(1,-1)"
           id="g28162">
          <use
             xlink:href="#g8DC4D98897396CB4356C2922B061B4F0"
             x="0"
             fill="#000000"
             id="use28160"
             y="0"
             width="100%"
             height="100%" />
        </g>
      </g>
      <g
         transform="translate(79.42425,74.38625)"
         id="g28170">
        <g
           class="typst-text"
           transform="scale(1,-1)"
           id="g28168">
          <use
             xlink:href="#g979498DE9C7BC60DA62D05AC675FC8A"
             x="0"
             fill="#000000"
             id="use28166"
             y="0"
             width="100%"
             height="100%" />
        </g>
      </g>
    </g>
  </g>
</svg>
