<?xml version="1.0" encoding="UTF-8" standalone="no"?>
<!-- Generator: Adobe Illustrator 21.1.0, SVG Export Plug-In . SVG Version: 6.00 Build 0)  -->

<svg
   version="1.1"
   id="Layer_1"
   x="0px"
   y="0px"
   viewBox="0 0 133.18 70.699997"
   xml:space="preserve"
   sodipodi:docname="kuleuven_logo.svg"
   width="133.17999"
   height="70.699997"
   inkscape:version="1.1.2 (0a00cf5339, 2022-02-04)"
   xmlns:inkscape="http://www.inkscape.org/namespaces/inkscape"
   xmlns:sodipodi="http://sodipodi.sourceforge.net/DTD/sodipodi-0.dtd"
   xmlns:xlink="http://www.w3.org/1999/xlink"
   xmlns="http://www.w3.org/2000/svg"
   xmlns:svg="http://www.w3.org/2000/svg"><defs
   id="defs47" /><sodipodi:namedview
   id="namedview45"
   pagecolor="#ffffff"
   bordercolor="#666666"
   borderopacity="1.0"
   inkscape:pageshadow="2"
   inkscape:pageopacity="0.0"
   inkscape:pagecheckerboard="0"
   showgrid="false"
   height="71px"
   inkscape:zoom="4.8130353"
   inkscape:cx="69.602648"
   inkscape:cy="13.712761"
   inkscape:window-width="1920"
   inkscape:window-height="1011"
   inkscape:window-x="1920"
   inkscape:window-y="32"
   inkscape:window-maximized="0"
   inkscape:current-layer="Layer_1" />
<style
   type="text/css"
   id="style2">
	.st0{fill:#00407A;}
	.st1{fill:#54BCEB;}
	.st2{fill:#FFFFFF;}
	.st3{clip-path:url(#SVGID_2_);fill:#FFFFFF;}
</style>




<g
   id="g32">
</g>
<g
   id="g34">
</g>
<g
   id="g36">
</g>
<g
   id="g38">
</g>
<g
   id="g40">
</g>
<g
   id="g42">
</g>
<g
   id="g33143"><rect
     x="4.7600002"
     y="4.7600002"
     class="st0"
     width="128.42"
     height="42.810001"
     id="rect4" /><rect
     x="4.7600002"
     y="49.306419"
     class="st0"
     width="128.42"
     height="21.4"
     id="rect4-3"
     style="fill:#b1c532;fill-opacity:1;stroke-width:0.707024" /><polygon
     class="st1"
     points="133.17,0 0,0 0,47.56 4.76,47.56 4.76,4.76 133.17,4.76 "
     id="polygon6" /><g
     id="g16994"><polygon
       class="st2"
       points="18.52,23.94 18.56,23.94 22.35,19.03 27.6,19.03 22.59,24.6 28.41,33.29 23.11,33.29 19.7,27.74 18.52,29.08 18.52,33.29 14.27,33.29 14.27,19.03 18.52,19.03 "
       id="polygon8" /><g
       id="g30">
	<defs
   id="defs11">
		<rect
   id="SVGID_1_"
   x="0"
   y="0"
   width="133.17"
   height="47.560001" />
	</defs>
	<clipPath
   id="SVGID_2_">
		<use
   xlink:href="#SVGID_1_"
   style="overflow:visible"
   id="use13"
   x="0"
   y="0"
   width="100%"
   height="100%" />
	</clipPath>
	<path
   class="st3"
   d="m 41.17,27.77 c 0,3.95 -2.07,5.85 -6.29,5.85 -4.22,0 -6.31,-1.9 -6.31,-5.85 v -8.75 h 4.26 v 7.77 c 0,1.46 0,3.27 2.07,3.27 2.01,0 2.01,-1.82 2.01,-3.27 v -7.77 h 4.26 z"
   clip-path="url(#SVGID_2_)"
   id="path16" />
	<polygon
   class="st3"
   points="47.42,33.29 47.42,19.03 51.67,19.03 51.67,29.64 57.68,29.64 57.68,33.29 "
   clip-path="url(#SVGID_2_)"
   id="polygon18" />
	<polygon
   class="st3"
   points="69.65,24.46 69.65,27.86 63.19,27.86 63.19,29.64 70.51,29.64 70.51,33.29 58.98,33.29 58.98,19.03 70.3,19.03 70.3,22.68 63.19,22.68 63.19,24.46 "
   clip-path="url(#SVGID_2_)"
   id="polygon20" />
	<path
   class="st3"
   d="m 84.2,27.77 c 0,3.95 -2.07,5.85 -6.29,5.85 -4.22,0 -6.3,-1.9 -6.3,-5.85 v -8.75 h 4.25 v 7.77 c 0,1.46 0,3.27 2.07,3.27 2.01,0 2.01,-1.82 2.01,-3.27 v -7.77 h 4.26 z"
   clip-path="url(#SVGID_2_)"
   id="path22" />
	<polygon
   class="st3"
   points="88.92,33.29 84.8,19.03 89.09,19.03 91.36,27.68 91.39,27.68 93.62,19.03 97.99,19.03 93.68,33.29 "
   clip-path="url(#SVGID_2_)"
   id="polygon24" />
	<polygon
   class="st3"
   points="109.26,24.46 109.26,27.86 102.81,27.86 102.81,29.64 110.13,29.64 110.13,33.29 98.59,33.29 98.59,19.03 109.91,19.03 109.91,22.68 102.81,22.68 102.81,24.46 "
   clip-path="url(#SVGID_2_)"
   id="polygon26" />
	<polygon
   class="st3"
   points="123.66,19.03 123.66,33.29 119.52,33.29 115.29,25.5 115.25,25.5 115.25,33.29 111.23,33.29 111.23,19.03 115.58,19.03 119.6,26.66 119.64,26.66 119.64,19.03 "
   clip-path="url(#SVGID_2_)"
   id="polygon28" />
</g></g><text
     xml:space="preserve"
     style="font-size:7.20003px;line-height:1.25;font-family:sans-serif;-inkscape-font-specification:sans-serif;text-align:center;letter-spacing:0px;word-spacing:0px;text-anchor:middle"
     x="68.898872"
     y="58.127312"
     id="text4449"><tspan
       sodipodi:role="line"
       id="tspan4447"
       x="68.898872"
       y="58.127312"
       style="font-weight:bold;font-size:7.20003px;text-align:center;text-anchor:middle">DOCTORAL SCHOOL</tspan><tspan
       sodipodi:role="line"
       x="68.898872"
       y="67.12735"
       style="font-weight:bold;font-size:7.20003px;text-align:center;text-anchor:middle"
       id="tspan11555">BIOMEDICAL SCIENCES</tspan></text></g></svg>
