<?xml version="1.0" encoding="utf-8" standalone="no"?>
<!DOCTYPE svg PUBLIC "-//W3C//DTD SVG 1.1//EN"
  "http://www.w3.org/Graphics/SVG/1.1/DTD/svg11.dtd">
<svg xmlns:xlink="http://www.w3.org/1999/xlink" width="720pt" height="288pt" viewBox="0 0 720 288" xmlns="http://www.w3.org/2000/svg" version="1.1">
 <metadata>
  <rdf:RDF xmlns:dc="http://purl.org/dc/elements/1.1/" xmlns:cc="http://creativecommons.org/ns#" xmlns:rdf="http://www.w3.org/1999/02/22-rdf-syntax-ns#">
   <cc:Work>
    <dc:type rdf:resource="http://purl.org/dc/dcmitype/StillImage"/>
    <dc:date>2024-04-15T18:29:00.394295</dc:date>
    <dc:format>image/svg+xml</dc:format>
    <dc:creator>
     <cc:Agent>
      <dc:title>Matplotlib v3.5.1, https://matplotlib.org/</dc:title>
     </cc:Agent>
    </dc:creator>
   </cc:Work>
  </rdf:RDF>
 </metadata>
 <defs>
  <style type="text/css">*{stroke-linejoin: round; stroke-linecap: butt}</style>
 </defs>
 <g id="figure_1">
  <g id="patch_1">
   <path d="M 0 288 
L 720 288 
L 720 0 
L 0 0 
z
" style="fill: #ffffff"/>
  </g>
  <g id="axes_1">
   <g id="patch_2">
    <path d="M 90 256.32 
L 648 256.32 
L 648 34.56 
L 90 34.56 
z
" style="fill: #ffffff"/>
   </g>
   <g id="matplotlib.axis_1">
    <g id="xtick_1">
     <g id="line2d_1">
      <defs>
       <path id="m8a3a246a4a" d="M 0 0 
L 0 3.5 
" style="stroke: #000000; stroke-width: 0.8"/>
      </defs>
      <g>
       <use xlink:href="#m8a3a246a4a" x="90" y="256.32" style="stroke: #000000; stroke-width: 0.8"/>
      </g>
     </g>
     <g id="text_1">
      <!-- 0 -->
      <g transform="translate(86.81875 270.918437)scale(0.1 -0.1)">
       <defs>
        <path id="DejaVuSans-30" d="M 2034 4250 
Q 1547 4250 1301 3770 
Q 1056 3291 1056 2328 
Q 1056 1369 1301 889 
Q 1547 409 2034 409 
Q 2525 409 2770 889 
Q 3016 1369 3016 2328 
Q 3016 3291 2770 3770 
Q 2525 4250 2034 4250 
z
M 2034 4750 
Q 2819 4750 3233 4129 
Q 3647 3509 3647 2328 
Q 3647 1150 3233 529 
Q 2819 -91 2034 -91 
Q 1250 -91 836 529 
Q 422 1150 422 2328 
Q 422 3509 836 4129 
Q 1250 4750 2034 4750 
z
" transform="scale(0.015625)"/>
       </defs>
       <use xlink:href="#DejaVuSans-30"/>
      </g>
     </g>
    </g>
    <g id="xtick_2">
     <g id="line2d_2">
      <g>
       <use xlink:href="#m8a3a246a4a" x="183" y="256.32" style="stroke: #000000; stroke-width: 0.8"/>
      </g>
     </g>
     <g id="text_2">
      <!-- π/3 -->
      <g transform="translate(175.124219 270.918437)scale(0.1 -0.1)">
       <defs>
        <path id="DejaVuSans-3c0" d="M 231 3500 
L 3584 3500 
L 3584 2925 
L 3144 2925 
L 3144 775 
Q 3144 550 3220 451 
Q 3297 353 3469 353 
Q 3516 353 3584 361 
Q 3653 369 3675 372 
L 3675 -44 
Q 3566 -84 3450 -103 
Q 3334 -122 3219 -122 
Q 2844 -122 2700 83 
Q 2556 288 2556 838 
L 2556 2925 
L 1266 2925 
L 1266 0 
L 678 0 
L 678 2925 
L 231 2925 
L 231 3500 
z
" transform="scale(0.015625)"/>
        <path id="DejaVuSans-2f" d="M 1625 4666 
L 2156 4666 
L 531 -594 
L 0 -594 
L 1625 4666 
z
" transform="scale(0.015625)"/>
        <path id="DejaVuSans-33" d="M 2597 2516 
Q 3050 2419 3304 2112 
Q 3559 1806 3559 1356 
Q 3559 666 3084 287 
Q 2609 -91 1734 -91 
Q 1441 -91 1130 -33 
Q 819 25 488 141 
L 488 750 
Q 750 597 1062 519 
Q 1375 441 1716 441 
Q 2309 441 2620 675 
Q 2931 909 2931 1356 
Q 2931 1769 2642 2001 
Q 2353 2234 1838 2234 
L 1294 2234 
L 1294 2753 
L 1863 2753 
Q 2328 2753 2575 2939 
Q 2822 3125 2822 3475 
Q 2822 3834 2567 4026 
Q 2313 4219 1838 4219 
Q 1578 4219 1281 4162 
Q 984 4106 628 3988 
L 628 4550 
Q 988 4650 1302 4700 
Q 1616 4750 1894 4750 
Q 2613 4750 3031 4423 
Q 3450 4097 3450 3541 
Q 3450 3153 3228 2886 
Q 3006 2619 2597 2516 
z
" transform="scale(0.015625)"/>
       </defs>
       <use xlink:href="#DejaVuSans-3c0"/>
       <use xlink:href="#DejaVuSans-2f" x="60.205078"/>
       <use xlink:href="#DejaVuSans-33" x="93.896484"/>
      </g>
     </g>
    </g>
    <g id="xtick_3">
     <g id="line2d_3">
      <g>
       <use xlink:href="#m8a3a246a4a" x="276" y="256.32" style="stroke: #000000; stroke-width: 0.8"/>
      </g>
     </g>
     <g id="text_3">
      <!-- 2π/3 -->
      <g transform="translate(264.942969 270.918437)scale(0.1 -0.1)">
       <defs>
        <path id="DejaVuSans-32" d="M 1228 531 
L 3431 531 
L 3431 0 
L 469 0 
L 469 531 
Q 828 903 1448 1529 
Q 2069 2156 2228 2338 
Q 2531 2678 2651 2914 
Q 2772 3150 2772 3378 
Q 2772 3750 2511 3984 
Q 2250 4219 1831 4219 
Q 1534 4219 1204 4116 
Q 875 4013 500 3803 
L 500 4441 
Q 881 4594 1212 4672 
Q 1544 4750 1819 4750 
Q 2544 4750 2975 4387 
Q 3406 4025 3406 3419 
Q 3406 3131 3298 2873 
Q 3191 2616 2906 2266 
Q 2828 2175 2409 1742 
Q 1991 1309 1228 531 
z
" transform="scale(0.015625)"/>
       </defs>
       <use xlink:href="#DejaVuSans-32"/>
       <use xlink:href="#DejaVuSans-3c0" x="63.623047"/>
       <use xlink:href="#DejaVuSans-2f" x="123.828125"/>
       <use xlink:href="#DejaVuSans-33" x="157.519531"/>
      </g>
     </g>
    </g>
    <g id="xtick_4">
     <g id="line2d_4">
      <g>
       <use xlink:href="#m8a3a246a4a" x="369" y="256.32" style="stroke: #000000; stroke-width: 0.8"/>
      </g>
     </g>
     <g id="text_4">
      <!-- π -->
      <g transform="translate(365.989844 270.918437)scale(0.1 -0.1)">
       <use xlink:href="#DejaVuSans-3c0"/>
      </g>
     </g>
    </g>
    <g id="xtick_5">
     <g id="line2d_5">
      <g>
       <use xlink:href="#m8a3a246a4a" x="462" y="256.32" style="stroke: #000000; stroke-width: 0.8"/>
      </g>
     </g>
     <g id="text_5">
      <!-- 4π/3 -->
      <g transform="translate(450.942969 270.918437)scale(0.1 -0.1)">
       <defs>
        <path id="DejaVuSans-34" d="M 2419 4116 
L 825 1625 
L 2419 1625 
L 2419 4116 
z
M 2253 4666 
L 3047 4666 
L 3047 1625 
L 3713 1625 
L 3713 1100 
L 3047 1100 
L 3047 0 
L 2419 0 
L 2419 1100 
L 313 1100 
L 313 1709 
L 2253 4666 
z
" transform="scale(0.015625)"/>
       </defs>
       <use xlink:href="#DejaVuSans-34"/>
       <use xlink:href="#DejaVuSans-3c0" x="63.623047"/>
       <use xlink:href="#DejaVuSans-2f" x="123.828125"/>
       <use xlink:href="#DejaVuSans-33" x="157.519531"/>
      </g>
     </g>
    </g>
    <g id="xtick_6">
     <g id="line2d_6">
      <g>
       <use xlink:href="#m8a3a246a4a" x="555" y="256.32" style="stroke: #000000; stroke-width: 0.8"/>
      </g>
     </g>
     <g id="text_6">
      <!-- 5π/3 -->
      <g transform="translate(543.942969 270.918437)scale(0.1 -0.1)">
       <defs>
        <path id="DejaVuSans-35" d="M 691 4666 
L 3169 4666 
L 3169 4134 
L 1269 4134 
L 1269 2991 
Q 1406 3038 1543 3061 
Q 1681 3084 1819 3084 
Q 2600 3084 3056 2656 
Q 3513 2228 3513 1497 
Q 3513 744 3044 326 
Q 2575 -91 1722 -91 
Q 1428 -91 1123 -41 
Q 819 9 494 109 
L 494 744 
Q 775 591 1075 516 
Q 1375 441 1709 441 
Q 2250 441 2565 725 
Q 2881 1009 2881 1497 
Q 2881 1984 2565 2268 
Q 2250 2553 1709 2553 
Q 1456 2553 1204 2497 
Q 953 2441 691 2322 
L 691 4666 
z
" transform="scale(0.015625)"/>
       </defs>
       <use xlink:href="#DejaVuSans-35"/>
       <use xlink:href="#DejaVuSans-3c0" x="63.623047"/>
       <use xlink:href="#DejaVuSans-2f" x="123.828125"/>
       <use xlink:href="#DejaVuSans-33" x="157.519531"/>
      </g>
     </g>
    </g>
    <g id="xtick_7">
     <g id="line2d_7">
      <g>
       <use xlink:href="#m8a3a246a4a" x="648" y="256.32" style="stroke: #000000; stroke-width: 0.8"/>
      </g>
     </g>
     <g id="text_7">
      <!-- 2π -->
      <g transform="translate(641.808594 270.918437)scale(0.1 -0.1)">
       <use xlink:href="#DejaVuSans-32"/>
       <use xlink:href="#DejaVuSans-3c0" x="63.623047"/>
      </g>
     </g>
    </g>
    <g id="xtick_8">
     <g id="line2d_8">
      <defs>
       <path id="mdd814a0205" d="M 0 0 
L 0 2 
" style="stroke: #000000; stroke-width: 0.6"/>
      </defs>
      <g>
       <use xlink:href="#mdd814a0205" x="113.25" y="256.32" style="stroke: #000000; stroke-width: 0.6"/>
      </g>
     </g>
    </g>
    <g id="xtick_9">
     <g id="line2d_9">
      <g>
       <use xlink:href="#mdd814a0205" x="136.5" y="256.32" style="stroke: #000000; stroke-width: 0.6"/>
      </g>
     </g>
    </g>
    <g id="xtick_10">
     <g id="line2d_10">
      <g>
       <use xlink:href="#mdd814a0205" x="159.75" y="256.32" style="stroke: #000000; stroke-width: 0.6"/>
      </g>
     </g>
    </g>
    <g id="xtick_11">
     <g id="line2d_11">
      <g>
       <use xlink:href="#mdd814a0205" x="206.25" y="256.32" style="stroke: #000000; stroke-width: 0.6"/>
      </g>
     </g>
    </g>
    <g id="xtick_12">
     <g id="line2d_12">
      <g>
       <use xlink:href="#mdd814a0205" x="229.5" y="256.32" style="stroke: #000000; stroke-width: 0.6"/>
      </g>
     </g>
    </g>
    <g id="xtick_13">
     <g id="line2d_13">
      <g>
       <use xlink:href="#mdd814a0205" x="252.75" y="256.32" style="stroke: #000000; stroke-width: 0.6"/>
      </g>
     </g>
    </g>
    <g id="xtick_14">
     <g id="line2d_14">
      <g>
       <use xlink:href="#mdd814a0205" x="299.25" y="256.32" style="stroke: #000000; stroke-width: 0.6"/>
      </g>
     </g>
    </g>
    <g id="xtick_15">
     <g id="line2d_15">
      <g>
       <use xlink:href="#mdd814a0205" x="322.5" y="256.32" style="stroke: #000000; stroke-width: 0.6"/>
      </g>
     </g>
    </g>
    <g id="xtick_16">
     <g id="line2d_16">
      <g>
       <use xlink:href="#mdd814a0205" x="345.75" y="256.32" style="stroke: #000000; stroke-width: 0.6"/>
      </g>
     </g>
    </g>
    <g id="xtick_17">
     <g id="line2d_17">
      <g>
       <use xlink:href="#mdd814a0205" x="392.25" y="256.32" style="stroke: #000000; stroke-width: 0.6"/>
      </g>
     </g>
    </g>
    <g id="xtick_18">
     <g id="line2d_18">
      <g>
       <use xlink:href="#mdd814a0205" x="415.5" y="256.32" style="stroke: #000000; stroke-width: 0.6"/>
      </g>
     </g>
    </g>
    <g id="xtick_19">
     <g id="line2d_19">
      <g>
       <use xlink:href="#mdd814a0205" x="438.75" y="256.32" style="stroke: #000000; stroke-width: 0.6"/>
      </g>
     </g>
    </g>
    <g id="xtick_20">
     <g id="line2d_20">
      <g>
       <use xlink:href="#mdd814a0205" x="485.25" y="256.32" style="stroke: #000000; stroke-width: 0.6"/>
      </g>
     </g>
    </g>
    <g id="xtick_21">
     <g id="line2d_21">
      <g>
       <use xlink:href="#mdd814a0205" x="508.5" y="256.32" style="stroke: #000000; stroke-width: 0.6"/>
      </g>
     </g>
    </g>
    <g id="xtick_22">
     <g id="line2d_22">
      <g>
       <use xlink:href="#mdd814a0205" x="531.75" y="256.32" style="stroke: #000000; stroke-width: 0.6"/>
      </g>
     </g>
    </g>
    <g id="xtick_23">
     <g id="line2d_23">
      <g>
       <use xlink:href="#mdd814a0205" x="578.25" y="256.32" style="stroke: #000000; stroke-width: 0.6"/>
      </g>
     </g>
    </g>
    <g id="xtick_24">
     <g id="line2d_24">
      <g>
       <use xlink:href="#mdd814a0205" x="601.5" y="256.32" style="stroke: #000000; stroke-width: 0.6"/>
      </g>
     </g>
    </g>
    <g id="xtick_25">
     <g id="line2d_25">
      <g>
       <use xlink:href="#mdd814a0205" x="624.75" y="256.32" style="stroke: #000000; stroke-width: 0.6"/>
      </g>
     </g>
    </g>
   </g>
   <g id="matplotlib.axis_2">
    <g id="ytick_1">
     <g id="line2d_26">
      <defs>
       <path id="md5f127d3dc" d="M 0 0 
L -3.5 0 
" style="stroke: #000000; stroke-width: 0.8"/>
      </defs>
      <g>
       <use xlink:href="#md5f127d3dc" x="90" y="256.32" style="stroke: #000000; stroke-width: 0.8"/>
      </g>
     </g>
     <g id="text_8">
      <!-- 0.0 -->
      <g transform="translate(67.096875 260.119219)scale(0.1 -0.1)">
       <defs>
        <path id="DejaVuSans-2e" d="M 684 794 
L 1344 794 
L 1344 0 
L 684 0 
L 684 794 
z
" transform="scale(0.015625)"/>
       </defs>
       <use xlink:href="#DejaVuSans-30"/>
       <use xlink:href="#DejaVuSans-2e" x="63.623047"/>
       <use xlink:href="#DejaVuSans-30" x="95.410156"/>
      </g>
     </g>
    </g>
    <g id="ytick_2">
     <g id="line2d_27">
      <g>
       <use xlink:href="#md5f127d3dc" x="90" y="145.44" style="stroke: #000000; stroke-width: 0.8"/>
      </g>
     </g>
     <g id="text_9">
      <!-- 0.5 -->
      <g transform="translate(67.096875 149.239219)scale(0.1 -0.1)">
       <use xlink:href="#DejaVuSans-30"/>
       <use xlink:href="#DejaVuSans-2e" x="63.623047"/>
       <use xlink:href="#DejaVuSans-35" x="95.410156"/>
      </g>
     </g>
    </g>
    <g id="ytick_3">
     <g id="line2d_28">
      <g>
       <use xlink:href="#md5f127d3dc" x="90" y="34.56" style="stroke: #000000; stroke-width: 0.8"/>
      </g>
     </g>
     <g id="text_10">
      <!-- 1.0 -->
      <g transform="translate(67.096875 38.359219)scale(0.1 -0.1)">
       <defs>
        <path id="DejaVuSans-31" d="M 794 531 
L 1825 531 
L 1825 4091 
L 703 3866 
L 703 4441 
L 1819 4666 
L 2450 4666 
L 2450 531 
L 3481 531 
L 3481 0 
L 794 0 
L 794 531 
z
" transform="scale(0.015625)"/>
       </defs>
       <use xlink:href="#DejaVuSans-31"/>
       <use xlink:href="#DejaVuSans-2e" x="63.623047"/>
       <use xlink:href="#DejaVuSans-30" x="95.410156"/>
      </g>
     </g>
    </g>
    <g id="ytick_4">
     <g id="line2d_29">
      <defs>
       <path id="mb82d1d4f7c" d="M 0 0 
L -2 0 
" style="stroke: #000000; stroke-width: 0.6"/>
      </defs>
      <g>
       <use xlink:href="#mb82d1d4f7c" x="90" y="234.144" style="stroke: #000000; stroke-width: 0.6"/>
      </g>
     </g>
    </g>
    <g id="ytick_5">
     <g id="line2d_30">
      <g>
       <use xlink:href="#mb82d1d4f7c" x="90" y="211.968" style="stroke: #000000; stroke-width: 0.6"/>
      </g>
     </g>
    </g>
    <g id="ytick_6">
     <g id="line2d_31">
      <g>
       <use xlink:href="#mb82d1d4f7c" x="90" y="189.792" style="stroke: #000000; stroke-width: 0.6"/>
      </g>
     </g>
    </g>
    <g id="ytick_7">
     <g id="line2d_32">
      <g>
       <use xlink:href="#mb82d1d4f7c" x="90" y="167.616" style="stroke: #000000; stroke-width: 0.6"/>
      </g>
     </g>
    </g>
    <g id="ytick_8">
     <g id="line2d_33">
      <g>
       <use xlink:href="#mb82d1d4f7c" x="90" y="123.264" style="stroke: #000000; stroke-width: 0.6"/>
      </g>
     </g>
    </g>
    <g id="ytick_9">
     <g id="line2d_34">
      <g>
       <use xlink:href="#mb82d1d4f7c" x="90" y="101.088" style="stroke: #000000; stroke-width: 0.6"/>
      </g>
     </g>
    </g>
    <g id="ytick_10">
     <g id="line2d_35">
      <g>
       <use xlink:href="#mb82d1d4f7c" x="90" y="78.912" style="stroke: #000000; stroke-width: 0.6"/>
      </g>
     </g>
    </g>
    <g id="ytick_11">
     <g id="line2d_36">
      <g>
       <use xlink:href="#mb82d1d4f7c" x="90" y="56.736" style="stroke: #000000; stroke-width: 0.6"/>
      </g>
     </g>
    </g>
   </g>
   <g id="line2d_37">
    <path d="M 90 198.6624 
L 93.1 198.820327 
L 96.2 199.292378 
L 99.3 200.073382 
L 102.4 201.154781 
L 105.5 202.524727 
L 108.6 204.168211 
L 111.7 206.067226 
L 114.8 208.200968 
L 117.9 210.546057 
L 122.55 214.403199 
L 127.2 218.582611 
L 133.4 224.47777 
L 145.8 236.399789 
L 150.45 240.579201 
L 155.1 244.436343 
L 158.2 246.781432 
L 161.3 248.915174 
L 164.4 250.814189 
L 167.5 252.457673 
L 170.6 253.827619 
L 173.7 254.909018 
L 176.8 255.690022 
L 179.9 256.162073 
L 183 256.32 
L 186.1 256.162073 
L 189.2 255.690022 
L 192.3 254.909018 
L 195.4 253.827619 
L 198.5 252.457673 
L 201.6 250.814189 
L 204.7 248.915174 
L 207.8 246.781432 
L 210.9 244.436343 
L 215.55 240.579201 
L 220.2 236.399789 
L 226.4 230.50463 
L 238.8 218.582611 
L 243.45 214.403199 
L 248.1 210.546057 
L 251.2 208.200968 
L 254.3 206.067226 
L 257.4 204.168211 
L 260.5 202.524727 
L 263.6 201.154781 
L 266.7 200.073382 
L 269.8 199.292378 
L 272.9 198.820327 
L 276 198.6624 
L 279.1 198.820327 
L 282.2 199.292378 
L 285.3 200.073382 
L 288.4 201.154781 
L 291.5 202.524727 
L 294.6 204.168211 
L 297.7 206.067226 
L 300.8 208.200968 
L 303.9 210.546057 
L 308.55 214.403199 
L 313.2 218.582611 
L 319.4 224.47777 
L 331.8 236.399789 
L 336.45 240.579201 
L 341.1 244.436343 
L 344.2 246.781432 
L 347.3 248.915174 
L 350.4 250.814189 
L 353.5 252.457673 
L 356.6 253.827619 
L 359.7 254.909018 
L 362.8 255.690022 
L 365.9 256.162073 
L 369 256.32 
L 372.1 256.162073 
L 375.2 255.690022 
L 378.3 254.909018 
L 381.4 253.827619 
L 384.5 252.457673 
L 387.6 250.814189 
L 390.7 248.915174 
L 393.8 246.781432 
L 396.9 244.436343 
L 401.55 240.579201 
L 406.2 236.399789 
L 412.4 230.50463 
L 424.8 218.582611 
L 429.45 214.403199 
L 434.1 210.546057 
L 437.2 208.200968 
L 440.3 206.067226 
L 443.4 204.168211 
L 446.5 202.524727 
L 449.6 201.154781 
L 452.7 200.073382 
L 455.8 199.292378 
L 458.9 198.820327 
L 462 198.6624 
L 465.1 198.820327 
L 468.2 199.292378 
L 471.3 200.073382 
L 474.4 201.154781 
L 477.5 202.524727 
L 480.6 204.168211 
L 483.7 206.067226 
L 486.8 208.200968 
L 489.9 210.546057 
L 494.55 214.403199 
L 499.2 218.582611 
L 505.4 224.47777 
L 517.8 236.399789 
L 522.45 240.579201 
L 527.1 244.436343 
L 530.2 246.781432 
L 533.3 248.915174 
L 536.4 250.814189 
L 539.5 252.457673 
L 542.6 253.827619 
L 545.7 254.909018 
L 548.8 255.690022 
L 551.9 256.162073 
L 555 256.32 
L 558.1 256.162073 
L 561.2 255.690022 
L 564.3 254.909018 
L 567.4 253.827619 
L 570.5 252.457673 
L 573.6 250.814189 
L 576.7 248.915174 
L 579.8 246.781432 
L 582.9 244.436343 
L 587.55 240.579201 
L 592.2 236.399789 
L 598.4 230.50463 
L 610.8 218.582611 
L 615.45 214.403199 
L 620.1 210.546057 
L 623.2 208.200968 
L 626.3 206.067226 
L 629.4 204.168211 
L 632.5 202.524727 
L 635.6 201.154781 
L 638.7 200.073382 
L 641.8 199.292378 
L 644.9 198.820327 
L 648 198.6624 
L 648 198.6624 
" clip-path="url(#p4c377fbe37)" style="fill: none; stroke-dasharray: 9.6,2.4,1.5,2.4; stroke-dashoffset: 0; stroke: #0a404d; stroke-width: 1.5"/>
   </g>
   <g id="line2d_38">
    <path d="M 90 256.32 
L 93.1 256.163343 
L 96.2 255.694136 
L 99.3 254.914663 
L 102.4 253.828724 
L 105.5 252.441608 
L 108.6 250.760074 
L 111.7 248.792313 
L 114.8 246.547912 
L 117.9 244.037807 
L 121 241.274225 
L 124.1 238.27063 
L 127.2 235.041657 
L 131.85 229.810305 
L 136.5 224.1648 
L 141.15 218.166996 
L 147.35 209.735949 
L 155.1 198.731867 
L 172.15 174.283251 
L 178.35 165.852204 
L 183 159.8544 
L 187.65 154.208895 
L 192.3 148.977543 
L 195.4 145.74857 
L 198.5 142.744975 
L 201.6 139.981393 
L 204.7 137.471288 
L 207.8 135.226887 
L 210.9 133.259126 
L 214 131.577592 
L 217.1 130.190476 
L 220.2 129.104537 
L 223.3 128.325064 
L 226.4 127.855857 
L 229.5 127.6992 
L 232.6 127.855857 
L 235.7 128.325064 
L 238.8 129.104537 
L 241.9 130.190476 
L 245 131.577592 
L 248.1 133.259126 
L 251.2 135.226887 
L 254.3 137.471288 
L 257.4 139.981393 
L 260.5 142.744975 
L 263.6 145.74857 
L 266.7 148.977543 
L 271.35 154.208895 
L 276 159.8544 
L 280.65 165.852204 
L 286.85 174.283251 
L 294.6 185.287333 
L 311.65 209.735949 
L 317.85 218.166996 
L 322.5 224.1648 
L 327.15 229.810305 
L 331.8 235.041657 
L 334.9 238.27063 
L 338 241.274225 
L 341.1 244.037807 
L 344.2 246.547912 
L 347.3 248.792313 
L 350.4 250.760074 
L 353.5 252.441608 
L 356.6 253.828724 
L 359.7 254.914663 
L 362.8 255.694136 
L 365.9 256.163343 
L 369 256.32 
L 372.1 256.163343 
L 375.2 255.694136 
L 378.3 254.914663 
L 381.4 253.828724 
L 384.5 252.441608 
L 387.6 250.760074 
L 390.7 248.792313 
L 393.8 246.547912 
L 396.9 244.037807 
L 400 241.274225 
L 403.1 238.27063 
L 406.2 235.041657 
L 410.85 229.810305 
L 415.5 224.1648 
L 420.15 218.166996 
L 426.35 209.735949 
L 434.1 198.731867 
L 451.15 174.283251 
L 457.35 165.852204 
L 462 159.8544 
L 466.65 154.208895 
L 471.3 148.977543 
L 474.4 145.74857 
L 477.5 142.744975 
L 480.6 139.981393 
L 483.7 137.471288 
L 486.8 135.226887 
L 489.9 133.259126 
L 493 131.577592 
L 496.1 130.190476 
L 499.2 129.104537 
L 502.3 128.325064 
L 505.4 127.855857 
L 508.5 127.6992 
L 511.6 127.855857 
L 514.7 128.325064 
L 517.8 129.104537 
L 520.9 130.190476 
L 524 131.577592 
L 527.1 133.259126 
L 530.2 135.226887 
L 533.3 137.471288 
L 536.4 139.981393 
L 539.5 142.744975 
L 542.6 145.74857 
L 545.7 148.977543 
L 550.35 154.208895 
L 555 159.8544 
L 559.65 165.852204 
L 565.85 174.283251 
L 573.6 185.287333 
L 590.65 209.735949 
L 596.85 218.166996 
L 601.5 224.1648 
L 606.15 229.810305 
L 610.8 235.041657 
L 613.9 238.27063 
L 617 241.274225 
L 620.1 244.037807 
L 623.2 246.547912 
L 626.3 248.792313 
L 629.4 250.760074 
L 632.5 252.441608 
L 635.6 253.828724 
L 638.7 254.914663 
L 641.8 255.694136 
L 644.9 256.163343 
L 648 256.32 
L 648 256.32 
" clip-path="url(#p4c377fbe37)" style="fill: none; stroke-dasharray: 9.6,2.4,1.5,2.4; stroke-dashoffset: 0; stroke: #4b90a2; stroke-width: 1.5"/>
   </g>
   <g id="line2d_39">
    <path d="M 90 207.5328 
L 97.75 207.625625 
L 107.05 207.980979 
L 116.35 208.598684 
L 125.65 209.471973 
L 134.95 210.591277 
L 144.25 211.944333 
L 153.55 213.516316 
L 164.4 215.603896 
L 175.25 217.934806 
L 187.65 220.851937 
L 201.6 224.388363 
L 218.65 228.953568 
L 260.5 240.269503 
L 274.45 243.752652 
L 286.85 246.606835 
L 297.7 248.871618 
L 307 250.612982 
L 316.3 252.149611 
L 325.6 253.46467 
L 334.9 254.543752 
L 344.2 255.375033 
L 353.5 255.949406 
L 362.8 256.260578 
L 370.55 256.316285 
L 378.3 256.186369 
L 387.6 255.786941 
L 396.9 255.126092 
L 406.2 254.211062 
L 415.5 253.051877 
L 424.8 251.661237 
L 434.1 250.054378 
L 444.95 247.930042 
L 455.8 245.567128 
L 468.2 242.61985 
L 482.15 239.058398 
L 500.75 234.052442 
L 536.4 224.388363 
L 550.35 220.851937 
L 562.75 217.934806 
L 573.6 215.603896 
L 584.45 213.516316 
L 593.75 211.944333 
L 603.05 210.591277 
L 612.35 209.471973 
L 621.65 208.598684 
L 630.95 207.980979 
L 640.25 207.625625 
L 648 207.5328 
L 648 207.5328 
" clip-path="url(#p4c377fbe37)" style="fill: none; stroke-dasharray: 9.6,2.4,1.5,2.4; stroke-dashoffset: 0; stroke: #81bdcc; stroke-width: 1.5"/>
   </g>
   <g id="line2d_40">
    <path d="M 90 149.8752 
L 97.75 149.973323 
L 108.6 150.354143 
L 119.45 150.698595 
L 125.65 150.675213 
L 130.3 150.461969 
L 134.95 150.022614 
L 139.6 149.305508 
L 142.7 148.648933 
L 145.8 147.833959 
L 148.9 146.848604 
L 152 145.682402 
L 155.1 144.326633 
L 158.2 142.774546 
L 161.3 141.021555 
L 164.4 139.065417 
L 167.5 136.906386 
L 170.6 134.547326 
L 175.25 130.646636 
L 179.9 126.33961 
L 184.55 121.670919 
L 189.2 116.699135 
L 195.4 109.724586 
L 212.45 90.206407 
L 217.1 85.298872 
L 221.75 80.78922 
L 224.85 78.062255 
L 227.95 75.599032 
L 231.05 73.43292 
L 234.15 71.595944 
L 237.25 70.118419 
L 240.35 69.028608 
L 243.45 68.352373 
L 245 68.176696 
L 246.55 68.112864 
L 248.1 68.163297 
L 249.65 68.33021 
L 251.2 68.615601 
L 252.75 69.021248 
L 254.3 69.548702 
L 255.85 70.199275 
L 257.4 70.974041 
L 260.5 72.899205 
L 263.6 75.327754 
L 266.7 78.259096 
L 269.8 81.688393 
L 272.9 85.606509 
L 276 90 
L 279.1 94.851142 
L 282.2 100.138007 
L 285.3 105.834574 
L 288.4 111.910887 
L 293.05 121.662698 
L 297.7 132.064044 
L 302.35 142.971065 
L 310.1 161.841984 
L 320.95 188.379717 
L 325.6 199.30082 
L 330.25 209.69468 
L 334.9 219.391312 
L 338 225.38871 
L 341.1 230.960242 
L 344.2 236.064378 
L 347.3 240.662892 
L 350.4 244.721204 
L 353.5 248.208688 
L 356.6 251.098947 
L 358.15 252.313083 
L 359.7 253.370051 
L 361.25 254.267838 
L 362.8 255.004736 
L 364.35 255.57934 
L 365.9 255.990556 
L 367.45 256.2376 
L 369 256.32 
L 370.55 256.2376 
L 372.1 255.990556 
L 373.65 255.57934 
L 375.2 255.004736 
L 376.75 254.267838 
L 378.3 253.370051 
L 379.85 252.313083 
L 381.4 251.098947 
L 382.95 249.729948 
L 386.05 246.538051 
L 389.15 242.761584 
L 392.25 238.429088 
L 395.35 233.573205 
L 398.45 228.230379 
L 401.55 222.44053 
L 404.65 216.246703 
L 409.3 206.299303 
L 413.95 195.710426 
L 420.15 180.892973 
L 438.75 135.65104 
L 443.4 125.064448 
L 448.05 115.081057 
L 451.15 108.827283 
L 454.25 102.936859 
L 457.35 97.441641 
L 460.45 92.369638 
L 463.55 87.744841 
L 466.65 83.587088 
L 469.75 79.91197 
L 472.85 76.730778 
L 475.95 74.050495 
L 479.05 71.873826 
L 482.15 70.199275 
L 483.7 69.548702 
L 485.25 69.021248 
L 486.8 68.615601 
L 488.35 68.33021 
L 489.9 68.163297 
L 491.45 68.112864 
L 493 68.176696 
L 496.1 68.637279 
L 499.2 69.523373 
L 502.3 70.810431 
L 505.4 72.471351 
L 508.5 74.4768 
L 511.6 76.795563 
L 514.7 79.394897 
L 517.8 82.2409 
L 522.45 86.896377 
L 527.1 91.910155 
L 533.3 98.949074 
L 547.25 114.986573 
L 551.9 120.044052 
L 556.55 124.820954 
L 561.2 129.254194 
L 565.85 133.29442 
L 568.95 135.751575 
L 572.05 138.011147 
L 575.15 140.068924 
L 578.25 141.92336 
L 581.35 143.575469 
L 584.45 145.028684 
L 587.55 146.288698 
L 590.65 147.363271 
L 593.75 148.262027 
L 596.85 148.99622 
L 601.5 149.816923 
L 606.15 150.34323 
L 610.8 150.626005 
L 617 150.714939 
L 624.75 150.534192 
L 644.9 149.89133 
L 648 149.8752 
L 648 149.8752 
" clip-path="url(#p4c377fbe37)" style="fill: none; stroke: #cd827b; stroke-width: 1.5; stroke-linecap: square"/>
   </g>
   <g id="patch_3">
    <path d="M 90 256.32 
L 90 34.56 
" style="fill: none; stroke: #000000; stroke-width: 0.8; stroke-linejoin: miter; stroke-linecap: square"/>
   </g>
   <g id="patch_4">
    <path d="M 90 256.32 
L 648 256.32 
" style="fill: none; stroke: #000000; stroke-width: 0.8; stroke-linejoin: miter; stroke-linecap: square"/>
   </g>
  </g>
  <g id="legend_1">
   <g id="patch_5">
    <path d="M 650.103125 66.7125 
L 713 66.7125 
Q 715 66.7125 715 64.7125 
L 715 7 
Q 715 5 713 5 
L 650.103125 5 
Q 648.103125 5 648.103125 7 
L 648.103125 64.7125 
Q 648.103125 66.7125 650.103125 66.7125 
z
" style="fill: #ffffff; opacity: 0.8; stroke: #cccccc; stroke-linejoin: miter"/>
   </g>
   <g id="line2d_41">
    <path d="M 652.103125 13.098437 
L 662.103125 13.098437 
L 672.103125 13.098437 
" style="fill: none; stroke-dasharray: 9.6,2.4,1.5,2.4; stroke-dashoffset: 0; stroke: #0a404d; stroke-width: 1.5"/>
   </g>
   <g id="text_11">
    <!-- n = 3 -->
    <g transform="translate(680.103125 16.598437)scale(0.1 -0.1)">
     <defs>
      <path id="DejaVuSans-6e" d="M 3513 2113 
L 3513 0 
L 2938 0 
L 2938 2094 
Q 2938 2591 2744 2837 
Q 2550 3084 2163 3084 
Q 1697 3084 1428 2787 
Q 1159 2491 1159 1978 
L 1159 0 
L 581 0 
L 581 3500 
L 1159 3500 
L 1159 2956 
Q 1366 3272 1645 3428 
Q 1925 3584 2291 3584 
Q 2894 3584 3203 3211 
Q 3513 2838 3513 2113 
z
" transform="scale(0.015625)"/>
      <path id="DejaVuSans-20" transform="scale(0.015625)"/>
      <path id="DejaVuSans-3d" d="M 678 2906 
L 4684 2906 
L 4684 2381 
L 678 2381 
L 678 2906 
z
M 678 1631 
L 4684 1631 
L 4684 1100 
L 678 1100 
L 678 1631 
z
" transform="scale(0.015625)"/>
     </defs>
     <use xlink:href="#DejaVuSans-6e"/>
     <use xlink:href="#DejaVuSans-20" x="63.378906"/>
     <use xlink:href="#DejaVuSans-3d" x="95.166016"/>
     <use xlink:href="#DejaVuSans-20" x="178.955078"/>
     <use xlink:href="#DejaVuSans-33" x="210.742188"/>
    </g>
   </g>
   <g id="line2d_42">
    <path d="M 652.103125 27.776563 
L 662.103125 27.776563 
L 672.103125 27.776563 
" style="fill: none; stroke-dasharray: 9.6,2.4,1.5,2.4; stroke-dashoffset: 0; stroke: #4b90a2; stroke-width: 1.5"/>
   </g>
   <g id="text_12">
    <!-- n = 2 -->
    <g transform="translate(680.103125 31.276563)scale(0.1 -0.1)">
     <use xlink:href="#DejaVuSans-6e"/>
     <use xlink:href="#DejaVuSans-20" x="63.378906"/>
     <use xlink:href="#DejaVuSans-3d" x="95.166016"/>
     <use xlink:href="#DejaVuSans-20" x="178.955078"/>
     <use xlink:href="#DejaVuSans-32" x="210.742188"/>
    </g>
   </g>
   <g id="line2d_43">
    <path d="M 652.103125 42.454687 
L 662.103125 42.454687 
L 672.103125 42.454687 
" style="fill: none; stroke-dasharray: 9.6,2.4,1.5,2.4; stroke-dashoffset: 0; stroke: #81bdcc; stroke-width: 1.5"/>
   </g>
   <g id="text_13">
    <!-- n = 1 -->
    <g transform="translate(680.103125 45.954687)scale(0.1 -0.1)">
     <use xlink:href="#DejaVuSans-6e"/>
     <use xlink:href="#DejaVuSans-20" x="63.378906"/>
     <use xlink:href="#DejaVuSans-3d" x="95.166016"/>
     <use xlink:href="#DejaVuSans-20" x="178.955078"/>
     <use xlink:href="#DejaVuSans-31" x="210.742188"/>
    </g>
   </g>
   <g id="line2d_44">
    <path d="M 652.103125 57.132812 
L 662.103125 57.132812 
L 672.103125 57.132812 
" style="fill: none; stroke: #cd827b; stroke-width: 1.5; stroke-linecap: square"/>
   </g>
   <g id="text_14">
    <!-- Result -->
    <g transform="translate(680.103125 60.632812)scale(0.1 -0.1)">
     <defs>
      <path id="DejaVuSans-52" d="M 2841 2188 
Q 3044 2119 3236 1894 
Q 3428 1669 3622 1275 
L 4263 0 
L 3584 0 
L 2988 1197 
Q 2756 1666 2539 1819 
Q 2322 1972 1947 1972 
L 1259 1972 
L 1259 0 
L 628 0 
L 628 4666 
L 2053 4666 
Q 2853 4666 3247 4331 
Q 3641 3997 3641 3322 
Q 3641 2881 3436 2590 
Q 3231 2300 2841 2188 
z
M 1259 4147 
L 1259 2491 
L 2053 2491 
Q 2509 2491 2742 2702 
Q 2975 2913 2975 3322 
Q 2975 3731 2742 3939 
Q 2509 4147 2053 4147 
L 1259 4147 
z
" transform="scale(0.015625)"/>
      <path id="DejaVuSans-65" d="M 3597 1894 
L 3597 1613 
L 953 1613 
Q 991 1019 1311 708 
Q 1631 397 2203 397 
Q 2534 397 2845 478 
Q 3156 559 3463 722 
L 3463 178 
Q 3153 47 2828 -22 
Q 2503 -91 2169 -91 
Q 1331 -91 842 396 
Q 353 884 353 1716 
Q 353 2575 817 3079 
Q 1281 3584 2069 3584 
Q 2775 3584 3186 3129 
Q 3597 2675 3597 1894 
z
M 3022 2063 
Q 3016 2534 2758 2815 
Q 2500 3097 2075 3097 
Q 1594 3097 1305 2825 
Q 1016 2553 972 2059 
L 3022 2063 
z
" transform="scale(0.015625)"/>
      <path id="DejaVuSans-73" d="M 2834 3397 
L 2834 2853 
Q 2591 2978 2328 3040 
Q 2066 3103 1784 3103 
Q 1356 3103 1142 2972 
Q 928 2841 928 2578 
Q 928 2378 1081 2264 
Q 1234 2150 1697 2047 
L 1894 2003 
Q 2506 1872 2764 1633 
Q 3022 1394 3022 966 
Q 3022 478 2636 193 
Q 2250 -91 1575 -91 
Q 1294 -91 989 -36 
Q 684 19 347 128 
L 347 722 
Q 666 556 975 473 
Q 1284 391 1588 391 
Q 1994 391 2212 530 
Q 2431 669 2431 922 
Q 2431 1156 2273 1281 
Q 2116 1406 1581 1522 
L 1381 1569 
Q 847 1681 609 1914 
Q 372 2147 372 2553 
Q 372 3047 722 3315 
Q 1072 3584 1716 3584 
Q 2034 3584 2315 3537 
Q 2597 3491 2834 3397 
z
" transform="scale(0.015625)"/>
      <path id="DejaVuSans-75" d="M 544 1381 
L 544 3500 
L 1119 3500 
L 1119 1403 
Q 1119 906 1312 657 
Q 1506 409 1894 409 
Q 2359 409 2629 706 
Q 2900 1003 2900 1516 
L 2900 3500 
L 3475 3500 
L 3475 0 
L 2900 0 
L 2900 538 
Q 2691 219 2414 64 
Q 2138 -91 1772 -91 
Q 1169 -91 856 284 
Q 544 659 544 1381 
z
M 1991 3584 
L 1991 3584 
z
" transform="scale(0.015625)"/>
      <path id="DejaVuSans-6c" d="M 603 4863 
L 1178 4863 
L 1178 0 
L 603 0 
L 603 4863 
z
" transform="scale(0.015625)"/>
      <path id="DejaVuSans-74" d="M 1172 4494 
L 1172 3500 
L 2356 3500 
L 2356 3053 
L 1172 3053 
L 1172 1153 
Q 1172 725 1289 603 
Q 1406 481 1766 481 
L 2356 481 
L 2356 0 
L 1766 0 
Q 1100 0 847 248 
Q 594 497 594 1153 
L 594 3053 
L 172 3053 
L 172 3500 
L 594 3500 
L 594 4494 
L 1172 4494 
z
" transform="scale(0.015625)"/>
     </defs>
     <use xlink:href="#DejaVuSans-52"/>
     <use xlink:href="#DejaVuSans-65" x="64.982422"/>
     <use xlink:href="#DejaVuSans-73" x="126.505859"/>
     <use xlink:href="#DejaVuSans-75" x="178.605469"/>
     <use xlink:href="#DejaVuSans-6c" x="241.984375"/>
     <use xlink:href="#DejaVuSans-74" x="269.767578"/>
    </g>
   </g>
  </g>
 </g>
 <defs>
  <clipPath id="p4c377fbe37">
   <rect x="90" y="34.56" width="558" height="221.76"/>
  </clipPath>
 </defs>
</svg>
