<?xml version="1.0" encoding="UTF-8" standalone="no"?>
<!-- Created with Inkscape (http://www.inkscape.org/) -->

<svg
   width="330mm"
   height="234mm"
   viewBox="0 0 330 234"
   version="1.1"
   id="svg5"
   inkscape:version="1.1.2 (0a00cf5339, 2022-02-04)"
   sodipodi:docname="spherical_convention.svg"
   xmlns:inkscape="http://www.inkscape.org/namespaces/inkscape"
   xmlns:sodipodi="http://sodipodi.sourceforge.net/DTD/sodipodi-0.dtd"
   xmlns="http://www.w3.org/2000/svg"
   xmlns:svg="http://www.w3.org/2000/svg">
  <sodipodi:namedview
     id="namedview7"
     pagecolor="#ffffff"
     bordercolor="#666666"
     borderopacity="1.0"
     inkscape:pageshadow="2"
     inkscape:pageopacity="0.0"
     inkscape:pagecheckerboard="0"
     inkscape:document-units="mm"
     showgrid="false"
     inkscape:zoom="1"
     inkscape:cx="-260"
     inkscape:cy="332"
     inkscape:window-width="1920"
     inkscape:window-height="1011"
     inkscape:window-x="0"
     inkscape:window-y="32"
     inkscape:window-maximized="0"
     inkscape:current-layer="layer1" />
  <defs
     id="defs2">
    <marker
       style="overflow:visible"
       id="Arrow1Lstart"
       refX="0"
       refY="0"
       orient="auto"
       inkscape:stockid="Arrow1Lstart"
       inkscape:isstock="true">
      <path
         transform="matrix(0.8,0,0,0.8,10,0)"
         style="fill:context-stroke;fill-rule:evenodd;stroke:context-stroke;stroke-width:1pt"
         d="M 0,0 5,-5 -12.5,0 5,5 Z"
         id="path1412" />
    </marker>
    <marker
       style="overflow:visible"
       id="Arrow1Lend"
       refX="0"
       refY="0"
       orient="auto"
       inkscape:stockid="Arrow1Lend"
       inkscape:isstock="true">
      <path
         transform="matrix(-0.8,0,0,-0.8,-10,0)"
         style="fill:context-stroke;fill-rule:evenodd;stroke:context-stroke;stroke-width:1pt"
         d="M 0,0 5,-5 -12.5,0 5,5 Z"
         id="path1415" />
    </marker>
    <clipPath
       clipPathUnits="userSpaceOnUse"
       id="clipPath858">
      <path
         d="m 959.4,136.26 -81.72236,2.30903 -47.738,3.51383 -39.75648,4.18364 -35.18684,4.69052 -32.02879,5.1091 -29.62598,5.47053 -27.68566,5.79119 -26.05356,6.08085 -24.63921,6.34589 -23.38536,6.59066 -22.25376,6.81831 -21.21764,7.0312 -20.25766,7.2311 -19.35941,7.41943 -18.51191,7.59729 -17.70663,7.76557 -16.93681,7.92502 -16.19707,8.07625 -15.48295,8.21977 -14.79089,8.35599 -14.11785,8.48529 -13.46131,8.60799 -12.81916,8.72433 -12.18959,8.83455 -11.57105,8.93887 -10.9622,9.03744 -10.36189,9.13041 -9.76911,9.21792 -9.183,9.30009 -8.60277,9.37702 -8.02773,9.44879 -7.45729,9.51549 -6.89092,9.57719 -6.32811,9.63393 -5.76846,9.68578 -5.21154,9.73279 -4.65703,9.77499 -4.10458,9.81242 -3.55391,9.84512 -3.00472,9.87309 -2.45678,9.89637 -1.90982,9.91498 -1.36363,9.92892 -0.81796,9.93821 L 234,498.96 l 0.27262,9.94285 0.81796,9.93821 1.36363,9.92892 1.90982,9.91498 2.45678,9.89637 3.00472,9.87309 3.55391,9.84512 4.10458,9.81242 4.65703,9.77499 5.21154,9.73279 5.76846,9.68578 6.32811,9.63393 6.89092,9.57718 7.45729,9.51549 8.02773,9.4488 8.60277,9.37702 9.183,9.30009 9.76911,9.21792 10.36189,9.13041 10.9622,9.03744 11.57105,8.93887 12.18959,8.83455 12.81916,8.72433 13.46131,8.60799 14.11785,8.48529 14.79089,8.35599 15.48295,8.21977 16.19707,8.07625 16.93681,7.92502 17.70663,7.76557 18.51191,7.59729 19.35941,7.41943 20.25766,7.2311 21.21764,7.0312 22.25376,6.81831 23.38536,6.59066 24.63921,6.34588 26.05356,6.08086 27.68566,5.79119 29.62598,5.47053 32.02879,5.1091 35.18684,4.69052 39.75648,4.18364 47.738,3.51383 L 959.4,861.66 v 0 l 81.7224,-2.30903 47.738,-3.51383 39.7564,-4.18364 35.1869,-4.69052 32.0288,-5.1091 29.626,-5.47053 27.6856,-5.79119 26.0536,-6.08086 24.6392,-6.34588 23.3853,-6.59066 22.2538,-6.81831 21.2176,-7.0312 20.2577,-7.2311 19.3594,-7.41943 18.5119,-7.59729 17.7066,-7.76557 16.9369,-7.92502 16.197,-8.07625 15.483,-8.21977 14.7909,-8.35599 14.1178,-8.48529 13.4613,-8.60799 12.8192,-8.72433 12.1896,-8.83455 11.571,-8.93887 10.9622,-9.03744 10.3619,-9.13041 9.7691,-9.21792 9.183,-9.30009 8.6028,-9.37702 8.0277,-9.4488 7.4573,-9.51549 6.8909,-9.57718 6.3282,-9.63393 5.7684,-9.68578 5.2115,-9.73279 4.6571,-9.77499 4.1046,-9.81242 3.5539,-9.84512 3.0047,-9.87309 2.4568,-9.89637 1.9098,-9.91498 1.3636,-9.92892 0.818,-9.93821 0.2726,-9.94285 -0.2726,-9.94285 -0.818,-9.93821 -1.3636,-9.92892 -1.9098,-9.91498 -2.4568,-9.89637 -3.0047,-9.87309 -3.5539,-9.84512 -4.1046,-9.81242 -4.6571,-9.77499 -5.2115,-9.73279 -5.7684,-9.68578 -6.3282,-9.63393 -6.8909,-9.57719 -7.4573,-9.51549 -8.0277,-9.44879 -8.6028,-9.37702 -9.183,-9.30009 -9.7691,-9.21792 -10.3619,-9.13041 -10.9622,-9.03744 -11.571,-8.93887 -12.1896,-8.83455 -12.8192,-8.72433 -13.4613,-8.60799 -14.1178,-8.48529 -14.7909,-8.35599 -15.483,-8.21977 -16.197,-8.07625 -16.9369,-7.92502 -17.7066,-7.76557 -18.5119,-7.59729 -19.3594,-7.41943 -20.2577,-7.2311 -21.2176,-7.0312 -22.2538,-6.81831 -23.3853,-6.59066 -24.6392,-6.34589 -26.0536,-6.08085 -27.6856,-5.79119 -29.626,-5.47053 -32.0288,-5.1091 -35.1869,-4.69052 -39.7564,-4.18364 -47.738,-3.51383 L 959.4,136.26 v 0"
         id="path856" />
    </clipPath>
    <clipPath
       clipPathUnits="userSpaceOnUse"
       id="clipPath888">
      <path
         d="m 959.4,136.26 -81.72236,2.30903 -47.738,3.51383 -39.75648,4.18364 -35.18684,4.69052 -32.02879,5.1091 -29.62598,5.47053 -27.68566,5.79119 -26.05356,6.08085 -24.63921,6.34589 -23.38536,6.59066 -22.25376,6.81831 -21.21764,7.0312 -20.25766,7.2311 -19.35941,7.41943 -18.51191,7.59729 -17.70663,7.76557 -16.93681,7.92502 -16.19707,8.07625 -15.48295,8.21977 -14.79089,8.35599 -14.11785,8.48529 -13.46131,8.60799 -12.81916,8.72433 -12.18959,8.83455 -11.57105,8.93887 -10.9622,9.03744 -10.36189,9.13041 -9.76911,9.21792 -9.183,9.30009 -8.60277,9.37702 -8.02773,9.44879 -7.45729,9.51549 -6.89092,9.57719 -6.32811,9.63393 -5.76846,9.68578 -5.21154,9.73279 -4.65703,9.77499 -4.10458,9.81242 -3.55391,9.84512 -3.00472,9.87309 -2.45678,9.89637 -1.90982,9.91498 -1.36363,9.92892 -0.81796,9.93821 L 234,498.96 l 0.27262,9.94285 0.81796,9.93821 1.36363,9.92892 1.90982,9.91498 2.45678,9.89637 3.00472,9.87309 3.55391,9.84512 4.10458,9.81242 4.65703,9.77499 5.21154,9.73279 5.76846,9.68578 6.32811,9.63393 6.89092,9.57718 7.45729,9.51549 8.02773,9.4488 8.60277,9.37702 9.183,9.30009 9.76911,9.21792 10.36189,9.13041 10.9622,9.03744 11.57105,8.93887 12.18959,8.83455 12.81916,8.72433 13.46131,8.60799 14.11785,8.48529 14.79089,8.35599 15.48295,8.21977 16.19707,8.07625 16.93681,7.92502 17.70663,7.76557 18.51191,7.59729 19.35941,7.41943 20.25766,7.2311 21.21764,7.0312 22.25376,6.81831 23.38536,6.59066 24.63921,6.34588 26.05356,6.08086 27.68566,5.79119 29.62598,5.47053 32.02879,5.1091 35.18684,4.69052 39.75648,4.18364 47.738,3.51383 L 959.4,861.66 v 0 l 81.7224,-2.30903 47.738,-3.51383 39.7564,-4.18364 35.1869,-4.69052 32.0288,-5.1091 29.626,-5.47053 27.6856,-5.79119 26.0536,-6.08086 24.6392,-6.34588 23.3853,-6.59066 22.2538,-6.81831 21.2176,-7.0312 20.2577,-7.2311 19.3594,-7.41943 18.5119,-7.59729 17.7066,-7.76557 16.9369,-7.92502 16.197,-8.07625 15.483,-8.21977 14.7909,-8.35599 14.1178,-8.48529 13.4613,-8.60799 12.8192,-8.72433 12.1896,-8.83455 11.571,-8.93887 10.9622,-9.03744 10.3619,-9.13041 9.7691,-9.21792 9.183,-9.30009 8.6028,-9.37702 8.0277,-9.4488 7.4573,-9.51549 6.8909,-9.57718 6.3282,-9.63393 5.7684,-9.68578 5.2115,-9.73279 4.6571,-9.77499 4.1046,-9.81242 3.5539,-9.84512 3.0047,-9.87309 2.4568,-9.89637 1.9098,-9.91498 1.3636,-9.92892 0.818,-9.93821 0.2726,-9.94285 -0.2726,-9.94285 -0.818,-9.93821 -1.3636,-9.92892 -1.9098,-9.91498 -2.4568,-9.89637 -3.0047,-9.87309 -3.5539,-9.84512 -4.1046,-9.81242 -4.6571,-9.77499 -5.2115,-9.73279 -5.7684,-9.68578 -6.3282,-9.63393 -6.8909,-9.57719 -7.4573,-9.51549 -8.0277,-9.44879 -8.6028,-9.37702 -9.183,-9.30009 -9.7691,-9.21792 -10.3619,-9.13041 -10.9622,-9.03744 -11.571,-8.93887 -12.1896,-8.83455 -12.8192,-8.72433 -13.4613,-8.60799 -14.1178,-8.48529 -14.7909,-8.35599 -15.483,-8.21977 -16.197,-8.07625 -16.9369,-7.92502 -17.7066,-7.76557 -18.5119,-7.59729 -19.3594,-7.41943 -20.2577,-7.2311 -21.2176,-7.0312 -22.2538,-6.81831 -23.3853,-6.59066 -24.6392,-6.34589 -26.0536,-6.08085 -27.6856,-5.79119 -29.626,-5.47053 -32.0288,-5.1091 -35.1869,-4.69052 -39.7564,-4.18364 -47.738,-3.51383 L 959.4,136.26 v 0"
         id="path886" />
    </clipPath>
    <marker
       style="overflow:visible"
       id="Arrow1Lstart-3"
       refX="0"
       refY="0"
       orient="auto"
       inkscape:stockid="Arrow1Lstart"
       inkscape:isstock="true">
      <path
         transform="matrix(0.8,0,0,0.8,10,0)"
         style="fill:context-stroke;fill-rule:evenodd;stroke:context-stroke;stroke-width:1pt"
         d="M 0,0 5,-5 -12.5,0 5,5 Z"
         id="path1412-6" />
    </marker>
    <marker
       style="overflow:visible"
       id="Arrow1Lend-7"
       refX="0"
       refY="0"
       orient="auto"
       inkscape:stockid="Arrow1Lend"
       inkscape:isstock="true">
      <path
         transform="matrix(-0.8,0,0,-0.8,-10,0)"
         style="fill:context-stroke;fill-rule:evenodd;stroke:context-stroke;stroke-width:1pt"
         d="M 0,0 5,-5 -12.5,0 5,5 Z"
         id="path1415-9" />
    </marker>
  </defs>
  <g
     inkscape:label="Layer 1"
     inkscape:groupmode="layer"
     id="layer1">
    <g
       id="g852"
       transform="matrix(0.17457557,0,0,-0.17457557,-1.4499891,208.82657)">
      <g
         id="g854"
         clip-path="url(#clipPath858)">
        <path
           d="m 838.50616,143.58727 -27.34893,3.74799 -24.80883,4.10435 -22.92265,4.40938 -21.42693,4.67858 -20.18741,4.92098 -19.12699,5.14237 -18.19771,5.3467 -17.36786,5.53677 -16.61549,5.71466 -15.92479,5.88198 -15.28412,6.03993 -14.68462,6.18953 -14.11941,6.33156 -13.58309,6.46667 -13.07134,6.5954 -12.58062,6.71821 -12.10807,6.83547 -11.65127,6.94751 -11.20822,7.05461 -10.77724,7.15702 -10.35686,7.25492 -9.94588,7.34851 -9.5432,7.43796 -9.14791,7.5234 -8.75923,7.60493 -8.37642,7.6827 -7.99888,7.75677 -7.62605,7.82726 -7.25748,7.89421 -6.89269,7.95771 -6.53132,8.01783 -6.17305,8.07459 -5.81752,8.12807 -5.4645,8.17831 -5.11369,8.22533 -4.7649,8.26919 -4.41791,8.30989 -4.07251,8.34749 -3.72856,8.382 -3.38586,8.41344 -3.04429,8.44183 -2.70369,8.46719 -2.36396,8.48953 -2.02494,8.50887 -1.68654,8.52522 -1.34864,8.53858 -1.01113,8.54896 -0.67393,8.55639 -0.33692,8.56083 v 8.5623 l 0.33692,8.56083 0.67393,8.55638 1.01113,8.54897 1.34864,8.53858 1.68654,8.52522 2.02494,8.50887 2.36396,8.48953 2.70369,8.46719 3.04429,8.44183 3.38586,8.41344 3.72856,8.382 4.07251,8.34749 4.41791,8.30989 4.7649,8.26919 5.11369,8.22533 5.4645,8.17831 5.81752,8.12807 6.17305,8.07459 6.53132,8.01783 6.89269,7.95771 7.25748,7.89421 7.62605,7.82725 7.99888,7.75678 8.37642,7.6827 8.75923,7.60493 9.14791,7.52339 9.5432,7.43797 9.94588,7.34851 10.35686,7.25492 10.77724,7.15702 11.20822,7.05461 11.65127,6.94751 12.10807,6.83547 12.58062,6.71821 13.07134,6.5954 13.58309,6.46667 14.11941,6.33156 14.68462,6.18953 15.28412,6.03993 15.92479,5.88198 16.61549,5.71466 17.36786,5.53677 18.19771,5.3467 19.12699,5.14237 20.18741,4.92098 21.42693,4.67858 22.92265,4.40938 24.80883,4.10435 27.34893,3.74799"
           style="fill:none;stroke:#000000;stroke-width:1;stroke-linecap:butt;stroke-linejoin:round;stroke-miterlimit:10;stroke-dasharray:1, 1.65;stroke-dashoffset:0;stroke-opacity:1"
           id="path860" />
        <path
           d="m 862.68493,143.58727 -21.87914,3.74799 -19.84707,4.10435 -18.33812,4.40938 -17.14155,4.67858 -16.14992,4.92098 -15.30159,5.14237 -14.55817,5.3467 -13.89429,5.53677 -13.29239,5.71466 -12.73983,5.88198 -12.2273,6.03993 -11.74769,6.18953 -11.29553,6.33156 -10.86648,6.46667 -10.45706,6.5954 -10.0645,6.71821 -9.68646,6.83547 -9.32101,6.94751 -8.96658,7.05461 -8.62179,7.15702 -8.28549,7.25492 -7.9567,7.34851 -7.63456,7.43796 -7.31834,7.5234 -7.00738,7.60493 -6.70113,7.6827 -6.39911,7.75677 -6.10084,7.82726 -5.80598,7.89421 -5.51415,7.95771 -5.22506,8.01783 -4.93844,8.07459 -4.65402,8.12807 -4.37159,8.17831 -4.09096,8.22533 -3.81192,8.26919 -3.53433,8.30989 -3.25801,8.34749 -2.98284,8.382 -2.70869,8.41344 -2.43543,8.44183 -2.16296,8.46719 -1.89116,8.48953 -1.61995,8.50887 -1.34923,8.52522 -1.07892,8.53858 -0.8089,8.54896 -0.53915,8.55639 -0.26953,8.56083 v 8.5623 l 0.26953,8.56083 0.53915,8.55638 0.8089,8.54897 1.07892,8.53858 1.34923,8.52522 1.61995,8.50887 1.89116,8.48953 2.16296,8.46719 2.43543,8.44183 2.70869,8.41344 2.98284,8.382 3.25801,8.34749 3.53433,8.30989 3.81192,8.26919 4.09096,8.22533 4.37159,8.17831 4.65402,8.12807 4.93844,8.07459 5.22506,8.01783 5.51415,7.95771 5.80598,7.89421 6.10084,7.82725 6.39911,7.75678 6.70113,7.6827 7.00738,7.60493 7.31834,7.52339 7.63456,7.43797 7.9567,7.34851 8.28549,7.25492 8.62179,7.15702 8.96658,7.05461 9.32101,6.94751 9.68646,6.83547 10.0645,6.71821 10.45706,6.5954 10.86648,6.46667 11.29553,6.33156 11.74769,6.18953 12.2273,6.03993 12.73983,5.88198 13.29239,5.71466 13.89429,5.53677 14.55817,5.3467 15.30159,5.14237 16.14992,4.92098 17.14155,4.67858 18.33812,4.40938 19.84707,4.10435 21.87914,3.74799"
           style="fill:none;stroke:#000000;stroke-width:1;stroke-linecap:butt;stroke-linejoin:round;stroke-miterlimit:10;stroke-dasharray:1, 1.65;stroke-dashoffset:0;stroke-opacity:1"
           id="path862" />
        <path
           d="m 886.8637,143.58727 -16.40936,3.74799 -14.8853,4.10435 -13.75359,4.40938 -12.85616,4.67858 -12.11245,4.92098 -11.47619,5.14237 -10.91863,5.3467 -10.42071,5.53677 -9.96929,5.71466 -9.55488,5.88198 -9.17047,6.03993 -8.81077,6.18953 -8.47165,6.33156 -8.14985,6.46667 -7.8428,6.5954 -7.54838,6.71821 -7.26484,6.83547 -6.99076,6.94751 -6.72493,7.05461 -6.46635,7.15702 -6.21412,7.25492 -5.96752,7.34851 -5.72592,7.43796 -5.48875,7.5234 -5.25554,7.60493 -5.02585,7.6827 -4.79932,7.75677 -4.57564,7.82726 -4.35448,7.89421 -4.13561,7.95771 -3.9188,8.01783 -3.70383,8.07459 -3.49051,8.12807 -3.2787,8.17831 -3.06822,8.22533 -2.85894,8.26919 -2.65074,8.30989 -2.44351,8.34749 -2.23713,8.382 -2.03152,8.41344 -1.82657,8.44183 -1.62222,8.46719 -1.41837,8.48953 -1.21497,8.50887 -1.01192,8.52522 -0.80918,8.53858 -0.60669,8.54896 -0.40435,8.55639 -0.20215,8.56083 v 8.5623 l 0.20215,8.56083 0.40435,8.55638 0.60669,8.54897 0.80918,8.53858 1.01192,8.52522 1.21497,8.50887 1.41837,8.48953 1.62222,8.46719 1.82657,8.44183 2.03152,8.41344 2.23713,8.382 2.44351,8.34749 2.65074,8.30989 2.85894,8.26919 3.06822,8.22533 3.2787,8.17831 3.49051,8.12807 3.70383,8.07459 3.9188,8.01783 4.13561,7.95771 4.35448,7.89421 4.57564,7.82725 4.79932,7.75678 5.02585,7.6827 5.25554,7.60493 5.48875,7.52339 5.72592,7.43797 5.96752,7.34851 6.21412,7.25492 6.46635,7.15702 6.72493,7.05461 6.99076,6.94751 7.26484,6.83547 7.54838,6.71821 7.8428,6.5954 8.14985,6.46667 8.47165,6.33156 8.81077,6.18953 9.17047,6.03993 9.55488,5.88198 9.96929,5.71466 10.42071,5.53677 10.91863,5.3467 11.47619,5.14237 12.11245,4.92098 12.85616,4.67858 13.75359,4.40938 14.8853,4.10435 16.40936,3.74799"
           style="fill:none;stroke:#000000;stroke-width:1;stroke-linecap:butt;stroke-linejoin:round;stroke-miterlimit:10;stroke-dasharray:1, 1.65;stroke-dashoffset:0;stroke-opacity:1"
           id="path864" />
        <path
           d="m 911.04246,143.58727 -10.93957,3.74799 -9.92353,4.10435 -9.16906,4.40938 -8.57077,4.67858 -8.07497,4.92098 -7.65079,5.14237 -7.27909,5.3467 -6.94714,5.53677 -6.6462,5.71466 -6.36991,5.88198 -6.11365,6.03993 -5.87385,6.18953 -5.64776,6.33156 -5.43324,6.46667 -5.22853,6.5954 -5.03225,6.71821 -4.84323,6.83547 -4.66051,6.94751 -4.48329,7.05461 -4.31089,7.15702 -4.14275,7.25492 -3.97835,7.34851 -3.81728,7.43796 -3.65916,7.5234 -3.50369,7.60493 -3.35057,7.6827 -3.19955,7.75677 -3.05043,7.82726 -2.90298,7.89421 -2.75708,7.95771 -2.61253,8.01783 -2.46922,8.07459 -2.32701,8.12807 -2.1858,8.17831 -2.04547,8.22533 -1.90597,8.26919 -1.76716,8.30989 -1.629,8.34749 -1.49142,8.382 -1.35435,8.41344 -1.21771,8.44183 -1.08148,8.46719 -0.94559,8.48953 -0.80997,8.50887 -0.67462,8.52522 -0.53945,8.53858 -0.40446,8.54896 -0.26957,8.55639 -0.13477,8.56083 v 8.5623 l 0.13477,8.56083 0.26957,8.55638 0.40446,8.54897 0.53945,8.53858 0.67462,8.52522 0.80997,8.50887 0.94559,8.48953 1.08148,8.46719 1.21771,8.44183 1.35435,8.41344 1.49142,8.382 1.629,8.34749 1.76716,8.30989 1.90597,8.26919 2.04547,8.22533 2.1858,8.17831 2.32701,8.12807 2.46922,8.07459 2.61253,8.01783 2.75708,7.95771 2.90298,7.89421 3.05043,7.82725 3.19955,7.75678 3.35057,7.6827 3.50369,7.60493 3.65916,7.52339 3.81728,7.43797 3.97835,7.34851 4.14275,7.25492 4.31089,7.15702 4.48329,7.05461 4.66051,6.94751 4.84323,6.83547 5.03225,6.71821 5.22853,6.5954 5.43324,6.46667 5.64776,6.33156 5.87385,6.18953 6.11365,6.03993 6.36991,5.88198 6.6462,5.71466 6.94714,5.53677 7.27909,5.3467 7.65079,5.14237 8.07497,4.92098 8.57077,4.67858 9.16906,4.40938 9.92353,4.10435 10.93957,3.74799"
           style="fill:none;stroke:#000000;stroke-width:1;stroke-linecap:butt;stroke-linejoin:round;stroke-miterlimit:10;stroke-dasharray:1, 1.65;stroke-dashoffset:0;stroke-opacity:1"
           id="path866" />
        <path
           d="m 935.22123,143.58727 -5.46978,3.74799 -4.96177,4.10435 -4.58453,4.40938 -4.28539,4.67858 -4.03748,4.92098 -3.8254,5.14237 -3.63954,5.3467 -3.47357,5.53677 -3.3231,5.71466 -3.18496,5.88198 -3.05682,6.03993 -2.93692,6.18953 -2.82388,6.33156 -2.71662,6.46667 -2.61427,6.5954 -2.51613,6.71821 -2.42161,6.83547 -2.33025,6.94751 -2.24165,7.05461 -2.15545,7.15702 -2.07137,7.25492 -1.98917,7.34851 -1.90864,7.43796 -1.82959,7.5234 -1.75184,7.60493 -1.67529,7.6827 -1.59977,7.75677 -1.52521,7.82726 -1.4515,7.89421 -1.37854,7.95771 -1.30626,8.01783 -1.23461,8.07459 -1.16351,8.12807 -1.09289,8.17831 -1.02274,8.22533 -0.95298,8.26919 -0.88358,8.30989 -0.81451,8.34749 -0.74571,8.382 -0.67717,8.41344 -0.60886,8.44183 -0.54074,8.46719 -0.47279,8.48953 -0.40499,8.50887 -0.3373,8.52522 -0.26973,8.53858 -0.20223,8.54896 -0.13478,8.55639 -0.0674,8.56083 v 8.5623 l 0.0674,8.56083 0.13478,8.55638 0.20223,8.54897 0.26973,8.53858 0.3373,8.52522 0.40499,8.50887 0.47279,8.48953 0.54074,8.46719 0.60886,8.44183 0.67717,8.41344 0.74571,8.382 0.81451,8.34749 0.88358,8.30989 0.95298,8.26919 1.02274,8.22533 1.09289,8.17831 1.16351,8.12807 1.23461,8.07459 1.30626,8.01783 1.37854,7.95771 1.4515,7.89421 1.52521,7.82725 1.59977,7.75678 1.67529,7.6827 1.75184,7.60493 1.82959,7.52339 1.90864,7.43797 1.98917,7.34851 2.07137,7.25492 2.15545,7.15702 2.24165,7.05461 2.33025,6.94751 2.42161,6.83547 2.51613,6.71821 2.61427,6.5954 2.71662,6.46667 2.82388,6.33156 2.93692,6.18953 3.05682,6.03993 3.18496,5.88198 3.3231,5.71466 3.47357,5.53677 3.63954,5.3467 3.8254,5.14237 4.03748,4.92098 4.28539,4.67858 4.58453,4.40938 4.96177,4.10435 5.46978,3.74799"
           style="fill:none;stroke:#000000;stroke-width:1;stroke-linecap:butt;stroke-linejoin:round;stroke-miterlimit:10;stroke-dasharray:1, 1.65;stroke-dashoffset:0;stroke-opacity:1"
           id="path868" />
        <path
           d="m 959.4,143.58727 v 3.74799 4.10435 4.40938 4.67858 4.92098 5.14237 5.3467 5.53677 5.71466 5.88198 6.03993 6.18953 6.33156 6.46667 6.5954 6.71821 6.83547 6.94751 7.05461 7.15702 7.25492 7.34851 7.43796 7.5234 7.60493 7.6827 7.75677 7.82726 7.89421 7.95771 8.01783 8.07459 8.12807 8.17831 8.22533 8.26919 8.30989 8.34749 8.382 8.41344 8.44183 8.46719 8.48953 8.50887 8.52522 8.53858 8.54896 8.55639 8.56083 8.5623 8.56083 8.55638 8.54897 8.53858 8.52522 8.50887 8.48953 8.46719 8.44183 8.41344 8.382 8.34749 8.30989 8.26919 8.22533 8.17831 8.12807 8.07459 8.01783 7.95771 7.89421 7.82725 7.75678 7.6827 7.60493 7.52339 7.43797 7.34851 7.25492 7.15702 7.05461 6.94751 6.83547 6.71821 6.5954 6.46667 6.33156 6.18953 6.03993 5.88198 5.71466 5.53677 5.3467 5.14237 4.92098 4.67858 4.40938 4.10435 3.74799 z"
           style="fill:none;stroke:#000000;stroke-width:1;stroke-linecap:butt;stroke-linejoin:round;stroke-miterlimit:10;stroke-dasharray:1, 1.65;stroke-dashoffset:0;stroke-opacity:1"
           id="path870" />
        <path
           d="m 519.65663,1094.4316 v -1.3222 -1.4479 -1.5556 -1.6505 -1.736 -1.8141 -1.8862 -1.9532 -2.016 -2.0751 -2.1307 -2.1835 -2.2337 -2.2813 -2.3267 -2.37 -2.4114 -2.451 -2.4887 -2.5248 -2.5594 -2.5924 -2.6239 -2.6541 -2.6829 -2.7102 -2.7365 -2.7612 -2.7849 -2.8073 -2.8286 -2.8485 -2.8674 -2.8851 -2.9017 -2.9172 -2.9316 -2.9448 -2.957 -2.96803 -2.97809 -2.98704 -2.99491 -3.00174 -3.00751 -3.01222 -3.01589 -3.0185 -3.02007 -3.02059 -3.02007 -3.0185 -3.01589 -3.01222 -3.00751 -3.00174 -2.99492 -2.98703 -2.97809 -2.96808 -2.95698 -2.94481 -2.93154 -2.91719 -2.90171 -2.88513 -2.8674 -2.84854 -2.82851 -2.8073 -2.7849 -2.76128 -2.73642 -2.71029 -2.68285 -2.65408 -2.62395 -2.5924 -2.55937 -2.52484 -2.48871 -2.45092 -2.41141 -2.37003 -2.32671 -2.2813 -2.23363 -2.18353 -2.13075 -2.07504 -2.016 -1.95325 -1.8862 -1.81411 -1.73601 -1.6505 -1.55553 -1.44793 -1.32221"
           style="fill:none;stroke:#000000;stroke-width:0.352778;stroke-linecap:butt;stroke-linejoin:round;stroke-miterlimit:10;stroke-dasharray:0.352778, 0.582083;stroke-dashoffset:0;stroke-opacity:1"
           id="path870-6" />
        <path
           d="m 96.411633,473.51493 v -1.3222 -1.44793 -1.55553 -1.6505 -1.73601 -1.81411 -1.8862 -1.95325 -2.01601 -2.07503 -2.13075 -2.18353 -2.23363 -2.2813 -2.32671 -2.37004 -2.4114 -2.45092 -2.48871 -2.52484 -2.55938 -2.59239 -2.62394 -2.65409 -2.68285 -2.71029 -2.73641 -2.76129 -2.7849 -2.8073 -2.82852 -2.84853 -2.8674 -2.88513 -2.90171 -2.91719 -2.93154 -2.94481 -2.95699 -2.96807 -2.97809 -2.98704 -2.99491 -3.00174 -3.00751 -3.01222 -3.01589 -3.0185 -3.02007 -3.02059 -3.02007 -3.0185 -3.01589 -3.01222 -3.00751 -3.00174 -2.99492 -2.98703 -2.97809 -2.96808 -2.95698 -2.94481 -2.93154 -2.91719 -2.90171 -2.88513 -2.8674 -2.84854 -2.82851 -2.8073 -2.7849 -2.76128 -2.73642 -2.71029 -2.68285 -2.65408 -2.62395 -2.5924 -2.55937 -2.52484 -2.48871 -2.45092 -2.41141 -2.37003 -2.32671 -2.2813 -2.23363 -2.18353 -2.13075 -2.07504 -2.016 -1.95325 -1.8862 -1.81411 -1.73601 -1.6505 -1.55553 -1.44793 -1.32221"
           style="fill:none;stroke:#000000;stroke-width:0.352778;stroke-linecap:butt;stroke-linejoin:round;stroke-miterlimit:10;stroke-dasharray:0.352778, 0.582083;stroke-dashoffset:0;stroke-opacity:1"
           id="path870-3" />
        <path
           d="m 983.57877,143.58727 5.46978,3.74799 4.96177,4.10435 4.58453,4.40938 4.28535,4.67858 4.0375,4.92098 3.8254,5.14237 3.6396,5.3467 3.4735,5.53677 3.3231,5.71466 3.185,5.88198 3.0568,6.03993 2.9369,6.18953 2.8239,6.33156 2.7166,6.46667 2.6143,6.5954 2.5161,6.71821 2.4216,6.83547 2.3303,6.94751 2.2416,7.05461 2.1555,7.15702 2.0714,7.25492 1.9891,7.34851 1.9087,7.43796 1.8296,7.5234 1.7518,7.60493 1.6753,7.6827 1.5998,7.75677 1.5252,7.82726 1.4515,7.89421 1.3785,7.95771 1.3063,8.01783 1.2346,8.07459 1.1635,8.12807 1.0929,8.17831 1.0227,8.22533 0.953,8.26919 0.8836,8.30989 0.8145,8.34749 0.7457,8.382 0.6772,8.41344 0.6088,8.44183 0.5408,8.46719 0.4728,8.48953 0.4049,8.50887 0.3374,8.52522 0.2697,8.53858 0.2022,8.54896 0.1348,8.55639 0.067,8.56083 v 8.5623 l -0.067,8.56083 -0.1348,8.55638 -0.2022,8.54897 -0.2697,8.53858 -0.3374,8.52522 -0.4049,8.50887 -0.4728,8.48953 -0.5408,8.46719 -0.6088,8.44183 -0.6772,8.41344 -0.7457,8.382 -0.8145,8.34749 -0.8836,8.30989 -0.953,8.26919 -1.0227,8.22533 -1.0929,8.17831 -1.1635,8.12807 -1.2346,8.07459 -1.3063,8.01783 -1.3785,7.95771 -1.4515,7.89421 -1.5252,7.82725 -1.5998,7.75678 -1.6753,7.6827 -1.7518,7.60493 -1.8296,7.52339 -1.9087,7.43797 -1.9891,7.34851 -2.0714,7.25492 -2.1555,7.15702 -2.2416,7.05461 -2.3303,6.94751 -2.4216,6.83547 -2.5161,6.71821 -2.6143,6.5954 -2.7166,6.46667 -2.8239,6.33156 -2.9369,6.18953 -3.0568,6.03993 -3.185,5.88198 -3.3231,5.71466 -3.4735,5.53677 -3.6396,5.3467 -3.8254,5.14237 -4.0375,4.92098 -4.28535,4.67858 -4.58453,4.40938 -4.96177,4.10435 -5.46978,3.74799"
           style="fill:none;stroke:#000000;stroke-width:1;stroke-linecap:butt;stroke-linejoin:round;stroke-miterlimit:10;stroke-dasharray:1, 1.65;stroke-dashoffset:0;stroke-opacity:1"
           id="path872" />
        <path
           d="m 1007.7575,143.58727 10.9396,3.74799 9.9235,4.10435 9.1691,4.40938 8.5708,4.67858 8.0749,4.92098 7.6508,5.14237 7.2791,5.3467 6.9472,5.53677 6.6462,5.71466 6.3699,5.88198 6.1136,6.03993 5.8739,6.18953 5.6477,6.33156 5.4333,6.46667 5.2285,6.5954 5.0323,6.71821 4.8432,6.83547 4.6605,6.94751 4.4833,7.05461 4.3109,7.15702 4.1427,7.25492 3.9784,7.34851 3.8172,7.43796 3.6592,7.5234 3.5037,7.60493 3.3506,7.6827 3.1995,7.75677 3.0504,7.82726 2.903,7.89421 2.7571,7.95771 2.6125,8.01783 2.4693,8.07459 2.327,8.12807 2.1858,8.17831 2.0454,8.22533 1.906,8.26919 1.7672,8.30989 1.629,8.34749 1.4914,8.382 1.3543,8.41344 1.2178,8.44183 1.0814,8.46719 0.9456,8.48953 0.81,8.50887 0.6746,8.52522 0.5395,8.53858 0.4044,8.54896 0.2696,8.55639 0.1348,8.56083 v 8.5623 l -0.1348,8.56083 -0.2696,8.55638 -0.4044,8.54897 -0.5395,8.53858 -0.6746,8.52522 -0.81,8.50887 -0.9456,8.48953 -1.0814,8.46719 -1.2178,8.44183 -1.3543,8.41344 -1.4914,8.382 -1.629,8.34749 -1.7672,8.30989 -1.906,8.26919 -2.0454,8.22533 -2.1858,8.17831 -2.327,8.12807 -2.4693,8.07459 -2.6125,8.01783 -2.7571,7.95771 -2.903,7.89421 -3.0504,7.82725 -3.1995,7.75678 -3.3506,7.6827 -3.5037,7.60493 -3.6592,7.52339 -3.8172,7.43797 -3.9784,7.34851 -4.1427,7.25492 -4.3109,7.15702 -4.4833,7.05461 -4.6605,6.94751 -4.8432,6.83547 -5.0323,6.71821 -5.2285,6.5954 -5.4333,6.46667 -5.6477,6.33156 -5.8739,6.18953 -6.1136,6.03993 -6.3699,5.88198 -6.6462,5.71466 -6.9472,5.53677 -7.2791,5.3467 -7.6508,5.14237 -8.0749,4.92098 -8.5708,4.67858 -9.1691,4.40938 -9.9235,4.10435 -10.9396,3.74799"
           style="fill:none;stroke:#000000;stroke-width:1;stroke-linecap:butt;stroke-linejoin:round;stroke-miterlimit:10;stroke-dasharray:1, 1.65;stroke-dashoffset:0;stroke-opacity:1"
           id="path874" />
        <path
           d="m 1031.9363,143.58727 16.4094,3.74799 14.8853,4.10435 13.7535,4.40938 12.8562,4.67858 12.1125,4.92098 11.4761,5.14237 10.9187,5.3467 10.4207,5.53677 9.9693,5.71466 9.5549,5.88198 9.1704,6.03993 8.8108,6.18953 8.4716,6.33156 8.1499,6.46667 7.8428,6.5954 7.5484,6.71821 7.2648,6.83547 6.9908,6.94751 6.7249,7.05461 6.4664,7.15702 6.2141,7.25492 5.9675,7.34851 5.7259,7.43796 5.4888,7.5234 5.2555,7.60493 5.0259,7.6827 4.7993,7.75677 4.5756,7.82726 4.3545,7.89421 4.1356,7.95771 3.9188,8.01783 3.7038,8.07459 3.4906,8.12807 3.2787,8.17831 3.0682,8.22533 2.8589,8.26919 2.6508,8.30989 2.4435,8.34749 2.2371,8.382 2.0315,8.41344 1.8266,8.44183 1.6222,8.46719 1.4184,8.48953 1.2149,8.50887 1.012,8.52522 0.8091,8.53858 0.6067,8.54896 0.4044,8.55639 0.2021,8.56083 v 8.5623 l -0.2021,8.56083 -0.4044,8.55638 -0.6067,8.54897 -0.8091,8.53858 -1.012,8.52522 -1.2149,8.50887 -1.4184,8.48953 -1.6222,8.46719 -1.8266,8.44183 -2.0315,8.41344 -2.2371,8.382 -2.4435,8.34749 -2.6508,8.30989 -2.8589,8.26919 -3.0682,8.22533 -3.2787,8.17831 -3.4906,8.12807 -3.7038,8.07459 -3.9188,8.01783 -4.1356,7.95771 -4.3545,7.89421 -4.5756,7.82725 -4.7993,7.75678 -5.0259,7.6827 -5.2555,7.60493 -5.4888,7.52339 -5.7259,7.43797 -5.9675,7.34851 -6.2141,7.25492 -6.4664,7.15702 -6.7249,7.05461 -6.9908,6.94751 -7.2648,6.83547 -7.5484,6.71821 -7.8428,6.5954 -8.1499,6.46667 -8.4716,6.33156 -8.8108,6.18953 -9.1704,6.03993 -9.5549,5.88198 -9.9693,5.71466 -10.4207,5.53677 -10.9187,5.3467 -11.4761,5.14237 -12.1125,4.92098 -12.8562,4.67858 -13.7535,4.40938 -14.8853,4.10435 -16.4094,3.74799"
           style="fill:none;stroke:#000000;stroke-width:1;stroke-linecap:butt;stroke-linejoin:round;stroke-miterlimit:10;stroke-dasharray:1, 1.65;stroke-dashoffset:0;stroke-opacity:1"
           id="path876" />
        <path
           d="m 1056.1151,143.58727 21.8791,3.74799 19.8471,4.10435 18.3381,4.40938 17.1415,4.67858 16.15,4.92098 15.3016,5.14237 14.5581,5.3467 13.8943,5.53677 13.2924,5.71466 12.7398,5.88198 12.2273,6.03993 11.7477,6.18953 11.2956,6.33156 10.8664,6.46667 10.4571,6.5954 10.0645,6.71821 9.6865,6.83547 9.321,6.94751 8.9666,7.05461 8.6217,7.15702 8.2855,7.25492 7.9567,7.34851 7.6346,7.43796 7.3183,7.5234 7.0074,7.60493 6.7011,7.6827 6.3991,7.75677 6.1009,7.82726 5.806,7.89421 5.5141,7.95771 5.2251,8.01783 4.9384,8.07459 4.654,8.12807 4.3716,8.17831 4.091,8.22533 3.8119,8.26919 3.5343,8.30989 3.258,8.34749 2.9829,8.382 2.7087,8.41344 2.4354,8.44183 2.163,8.46719 1.8911,8.48953 1.62,8.50887 1.3492,8.52522 1.0789,8.53858 0.8089,8.54896 0.5392,8.55639 0.2695,8.56083 v 8.5623 l -0.2695,8.56083 -0.5392,8.55638 -0.8089,8.54897 -1.0789,8.53858 -1.3492,8.52522 -1.62,8.50887 -1.8911,8.48953 -2.163,8.46719 -2.4354,8.44183 -2.7087,8.41344 -2.9829,8.382 -3.258,8.34749 -3.5343,8.30989 -3.8119,8.26919 -4.091,8.22533 -4.3716,8.17831 -4.654,8.12807 -4.9384,8.07459 -5.2251,8.01783 -5.5141,7.95771 -5.806,7.89421 -6.1009,7.82725 -6.3991,7.75678 -6.7011,7.6827 -7.0074,7.60493 -7.3183,7.52339 -7.6346,7.43797 -7.9567,7.34851 -8.2855,7.25492 -8.6217,7.15702 -8.9666,7.05461 -9.321,6.94751 -9.6865,6.83547 -10.0645,6.71821 -10.4571,6.5954 -10.8664,6.46667 -11.2956,6.33156 -11.7477,6.18953 -12.2273,6.03993 -12.7398,5.88198 -13.2924,5.71466 -13.8943,5.53677 -14.5581,5.3467 -15.3016,5.14237 -16.15,4.92098 -17.1415,4.67858 -18.3381,4.40938 -19.8471,4.10435 -21.8791,3.74799"
           style="fill:none;stroke:#000000;stroke-width:1;stroke-linecap:butt;stroke-linejoin:round;stroke-miterlimit:10;stroke-dasharray:1, 1.65;stroke-dashoffset:0;stroke-opacity:1"
           id="path878" />
        <path
           d="m 1080.2938,143.58727 27.349,3.74799 24.8088,4.10435 22.9226,4.40938 21.427,4.67858 20.1874,4.92098 19.127,5.14237 18.1977,5.3467 17.3679,5.53677 16.6154,5.71466 15.9248,5.88198 15.2842,6.03993 14.6846,6.18953 14.1194,6.33156 13.5831,6.46667 13.0713,6.5954 12.5806,6.71821 12.1081,6.83547 11.6513,6.94751 11.2082,7.05461 10.7772,7.15702 10.3569,7.25492 9.9459,7.34851 9.5432,7.43796 9.1479,7.5234 8.7592,7.60493 8.3764,7.6827 7.9989,7.75677 7.6261,7.82726 7.2574,7.89421 6.8927,7.95771 6.5314,8.01783 6.173,8.07459 5.8175,8.12807 5.4645,8.17831 5.1137,8.22533 4.7649,8.26919 4.4179,8.30989 4.0725,8.34749 3.7286,8.382 3.3858,8.41344 3.0443,8.44183 2.7037,8.46719 2.364,8.48953 2.0249,8.50887 1.6866,8.52522 1.3486,8.53858 1.0111,8.54896 0.674,8.55639 0.3369,8.56083 v 8.5623 l -0.3369,8.56083 -0.674,8.55638 -1.0111,8.54897 -1.3486,8.53858 -1.6866,8.52522 -2.0249,8.50887 -2.364,8.48953 -2.7037,8.46719 -3.0443,8.44183 -3.3858,8.41344 -3.7286,8.382 -4.0725,8.34749 -4.4179,8.30989 -4.7649,8.26919 -5.1137,8.22533 -5.4645,8.17831 -5.8175,8.12807 -6.173,8.07459 -6.5314,8.01783 -6.8927,7.95771 -7.2574,7.89421 -7.6261,7.82725 -7.9989,7.75678 -8.3764,7.6827 -8.7592,7.60493 -9.1479,7.52339 -9.5432,7.43797 -9.9459,7.34851 -10.3569,7.25492 -10.7772,7.15702 -11.2082,7.05461 -11.6513,6.94751 -12.1081,6.83547 -12.5806,6.71821 -13.0713,6.5954 -13.5831,6.46667 -14.1194,6.33156 -14.6846,6.18953 -15.2842,6.03993 -15.9248,5.88198 -16.6154,5.71466 -17.3679,5.53677 -18.1977,5.3467 -19.127,5.14237 -20.1874,4.92098 -21.427,4.67858 -22.9226,4.40938 -24.8088,4.10435 -27.349,3.74799"
           style="fill:none;stroke:#000000;stroke-width:1;stroke-linecap:butt;stroke-linejoin:round;stroke-miterlimit:10;stroke-dasharray:1, 1.65;stroke-dashoffset:0;stroke-opacity:1"
           id="path880" />
      </g>
    </g>
    <g
       id="g882"
       transform="matrix(0.17457557,0,0,-0.17457557,-1.4499891,208.82657)">
      <g
         id="g884"
         clip-path="url(#clipPath888)">
        <path
           d="m 374.8951,284.22646 h 11.70995 11.81021 11.8102 11.81021 11.8102 11.81021 11.8102 11.81021 11.8102 11.81021 11.8102 11.81021 11.8102 11.81021 11.8102 11.81021 11.81021 11.8102 11.81021 11.8102 11.8102 11.81021 11.81021 11.8102 11.81021 11.8102 11.81021 11.8102 11.81021 11.8102 11.81021 11.8102 11.81021 11.8102 11.81021 11.8102 11.81021 11.8102 11.81021 11.8102 11.81021 11.8102 11.81021 11.8102 11.81021 11.8102 11.81021 11.8102 11.81021 11.8102 11.81021 11.8102 11.81019 11.8102 11.8102 11.8102 11.8102 11.8102 11.8102 11.8103 11.8102 11.8102 11.8102 11.8102 11.8102 11.8102 11.8102 11.8102 11.8102 11.8102 11.8102 11.8102 11.8102 11.8102 11.8102 11.8102 11.8102 11.8102 11.8103 11.8102 11.8102 11.8102 11.8102 11.8102 11.8102 11.8102 11.8102 11.8102 11.8102 11.8102 11.8102 11.8102 11.8102 11.8102 11.8102 11.8102 11.8102 11.8102 11.71 v 0"
           style="fill:none;stroke:#000000;stroke-width:1;stroke-linecap:butt;stroke-linejoin:round;stroke-miterlimit:10;stroke-dasharray:1, 1.65;stroke-dashoffset:0;stroke-opacity:1"
           id="path890" />
        <path
           d="m 234,498.96 h 14.65454 14.65455 14.65455 14.65454 14.65455 14.65454 14.65455 14.65454 14.65455 14.65454 14.65455 14.65455 14.65454 14.65455 14.65454 14.65455 14.65454 14.65455 14.65454 14.65455 14.65454 14.65455 14.65454 14.65455 14.65455 14.65454 14.65455 14.65454 14.65455 14.65454 14.65455 14.65454 14.65455 14.65454 14.65455 14.65455 14.65454 14.65455 14.65454 14.65455 14.65454 14.65455 14.65454 14.65455 14.65454 14.65455 14.65455 14.65454 14.65455 14.65454 14.65455 14.65454 14.65454 14.6546 14.6545 14.6545 14.6546 14.6545 14.6546 14.6545 14.6546 14.6545 14.6546 14.6545 14.6546 14.6545 14.6545 14.6546 14.6545 14.6546 14.6545 14.6546 14.6545 14.6546 14.6545 14.6546 14.6545 14.6545 14.6546 14.6545 14.6546 14.6545 14.6546 14.6545 14.6546 14.6545 14.6546 14.6545 14.6545 14.6546 14.6545 14.6546 14.6545 14.6546 14.6545 14.6546 14.6545 14.6546 14.6545"
           style="fill:none;stroke:#000000;stroke-width:1;stroke-linecap:butt;stroke-linejoin:round;stroke-miterlimit:10;stroke-dasharray:1, 1.65;stroke-dashoffset:0;stroke-opacity:1"
           id="path892" />
        <path
           d="m 374.8951,713.69354 h 11.70995 11.81021 11.8102 11.81021 11.8102 11.81021 11.8102 11.81021 11.8102 11.81021 11.8102 11.81021 11.8102 11.81021 11.8102 11.81021 11.81021 11.8102 11.81021 11.8102 11.8102 11.81021 11.81021 11.8102 11.81021 11.8102 11.81021 11.8102 11.81021 11.8102 11.81021 11.8102 11.81021 11.8102 11.81021 11.8102 11.81021 11.8102 11.81021 11.8102 11.81021 11.8102 11.81021 11.8102 11.81021 11.8102 11.81021 11.8102 11.81021 11.8102 11.81021 11.8102 11.81019 11.8102 11.8102 11.8102 11.8102 11.8102 11.8102 11.8103 11.8102 11.8102 11.8102 11.8102 11.8102 11.8102 11.8102 11.8102 11.8102 11.8102 11.8102 11.8102 11.8102 11.8102 11.8102 11.8102 11.8102 11.8102 11.8103 11.8102 11.8102 11.8102 11.8102 11.8102 11.8102 11.8102 11.8102 11.8102 11.8102 11.8102 11.8102 11.8102 11.8102 11.8102 11.8102 11.8102 11.8102 11.8102 11.71 v 0"
           style="fill:none;stroke:#000000;stroke-width:1;stroke-linecap:butt;stroke-linejoin:round;stroke-miterlimit:10;stroke-dasharray:1, 1.65;stroke-dashoffset:0;stroke-opacity:1"
           id="path894" />
      </g>
    </g>
    <g
       id="g896"
       transform="matrix(0.17457557,0,0,-0.17457557,-1.4499891,208.82657)">
      <path
         d="m 959.4,136.26 -81.72236,2.30903 -47.738,3.51383 -39.75648,4.18364 -35.18684,4.69052 -32.02879,5.1091 -29.62598,5.47053 -27.68566,5.79119 -26.05356,6.08085 -24.63921,6.34589 -23.38536,6.59066 -22.25376,6.81831 -21.21764,7.0312 -20.25766,7.2311 -19.35941,7.41943 -18.51191,7.59729 -17.70663,7.76557 -16.93681,7.92502 -16.19707,8.07625 -15.48295,8.21977 -14.79089,8.35599 -14.11785,8.48529 -13.46131,8.60799 -12.81916,8.72433 -12.18959,8.83455 -11.57105,8.93887 -10.9622,9.03744 -10.36189,9.13041 -9.76911,9.21792 -9.183,9.30009 -8.60277,9.37702 -8.02773,9.44879 -7.45729,9.51549 -6.89092,9.57719 -6.32811,9.63393 -5.76846,9.68578 -5.21154,9.73279 -4.65703,9.77499 -4.10458,9.81242 -3.55391,9.84512 -3.00472,9.87309 -2.45678,9.89637 -1.90982,9.91498 -1.36363,9.92892 -0.81796,9.93821 L 234,498.96 l 0.27262,9.94285 0.81796,9.93821 1.36363,9.92892 1.90982,9.91498 2.45678,9.89637 3.00472,9.87309 3.55391,9.84512 4.10458,9.81242 4.65703,9.77499 5.21154,9.73279 5.76846,9.68578 6.32811,9.63393 6.89092,9.57718 7.45729,9.51549 8.02773,9.4488 8.60277,9.37702 9.183,9.30009 9.76911,9.21792 10.36189,9.13041 10.9622,9.03744 11.57105,8.93887 12.18959,8.83455 12.81916,8.72433 13.46131,8.60799 14.11785,8.48529 14.79089,8.35599 15.48295,8.21977 16.19707,8.07625 16.93681,7.92502 17.70663,7.76557 18.51191,7.59729 19.35941,7.41943 20.25766,7.2311 21.21764,7.0312 22.25376,6.81831 23.38536,6.59066 24.63921,6.34588 26.05356,6.08086 27.68566,5.79119 29.62598,5.47053 32.02879,5.1091 35.18684,4.69052 39.75648,4.18364 47.738,3.51383 L 959.4,861.66 v 0 l 81.7224,-2.30903 47.738,-3.51383 39.7564,-4.18364 35.1869,-4.69052 32.0288,-5.1091 29.626,-5.47053 27.6856,-5.79119 26.0536,-6.08086 24.6392,-6.34588 23.3853,-6.59066 22.2538,-6.81831 21.2176,-7.0312 20.2577,-7.2311 19.3594,-7.41943 18.5119,-7.59729 17.7066,-7.76557 16.9369,-7.92502 16.197,-8.07625 15.483,-8.21977 14.7909,-8.35599 14.1178,-8.48529 13.4613,-8.60799 12.8192,-8.72433 12.1896,-8.83455 11.571,-8.93887 10.9622,-9.03744 10.3619,-9.13041 9.7691,-9.21792 9.183,-9.30009 8.6028,-9.37702 8.0277,-9.4488 7.4573,-9.51549 6.8909,-9.57718 6.3282,-9.63393 5.7684,-9.68578 5.2115,-9.73279 4.6571,-9.77499 4.1046,-9.81242 3.5539,-9.84512 3.0047,-9.87309 2.4568,-9.89637 1.9098,-9.91498 1.3636,-9.92892 0.818,-9.93821 0.2726,-9.94285 -0.2726,-9.94285 -0.818,-9.93821 -1.3636,-9.92892 -1.9098,-9.91498 -2.4568,-9.89637 -3.0047,-9.87309 -3.5539,-9.84512 -4.1046,-9.81242 -4.6571,-9.77499 -5.2115,-9.73279 -5.7684,-9.68578 -6.3282,-9.63393 -6.8909,-9.57719 -7.4573,-9.51549 -8.0277,-9.44879 -8.6028,-9.37702 -9.183,-9.30009 -9.7691,-9.21792 -10.3619,-9.13041 -10.9622,-9.03744 -11.571,-8.93887 -12.1896,-8.83455 -12.8192,-8.72433 -13.4613,-8.60799 -14.1178,-8.48529 -14.7909,-8.35599 -15.483,-8.21977 -16.197,-8.07625 -16.9369,-7.92502 -17.7066,-7.76557 -18.5119,-7.59729 -19.3594,-7.41943 -20.2577,-7.2311 -21.2176,-7.0312 -22.2538,-6.81831 -23.3853,-6.59066 -24.6392,-6.34589 -26.0536,-6.08085 -27.6856,-5.79119 -29.626,-5.47053 -32.0288,-5.1091 -35.1869,-4.69052 -39.7564,-4.18364 -47.738,-3.51383 L 959.4,136.26 v 0"
         style="fill:none;stroke:#000000;stroke-width:0.8;stroke-linecap:butt;stroke-linejoin:miter;stroke-miterlimit:10;stroke-dasharray:none;stroke-opacity:1"
         id="path898" />
    </g>
    <path
       style="fill:none;stroke:#000000;stroke-width:0.24743;stroke-linecap:butt;stroke-linejoin:miter;stroke-miterlimit:4;stroke-dasharray:none;stroke-opacity:1"
       d="m 39.295911,58.324483 0,126.741857"
       id="path1215"
       sodipodi:nodetypes="cc" />
    <path
       style="fill:none;stroke:#000000;stroke-width:0.24743;stroke-linecap:butt;stroke-linejoin:miter;stroke-miterlimit:4;stroke-dasharray:none;stroke-opacity:1"
       d="m 39.172669,185.06634 253.571661,0"
       id="path1330"
       sodipodi:nodetypes="cc" />
    <path
       style="fill:none;stroke:#000000;stroke-width:0.24743;stroke-linecap:butt;stroke-linejoin:miter;stroke-miterlimit:4;stroke-dasharray:none;stroke-opacity:1"
       d="m 39.347821,159.19182 h 2.33621"
       id="path1330-2-0" />
    <path
       style="fill:none;stroke:#000000;stroke-width:0.24743;stroke-linecap:butt;stroke-linejoin:miter;stroke-miterlimit:4;stroke-dasharray:none;stroke-opacity:1"
       d="m 39.348241,121.70367 h 2.33621"
       id="path1330-2-2" />
    <path
       style="fill:none;stroke:#000000;stroke-width:0.24743;stroke-linecap:butt;stroke-linejoin:miter;stroke-miterlimit:4;stroke-dasharray:none;stroke-opacity:1"
       d="m 39.347081,84.216437 h 2.33621"
       id="path1330-2-3" />
    <path
       style="fill:none;stroke:#000000;stroke-width:0.24743;stroke-linecap:butt;stroke-linejoin:miter;stroke-miterlimit:4;stroke-dasharray:none;stroke-opacity:1"
       d="m 39.347681,58.448551 h 2.33622"
       id="path1330-2-7" />
    <path
       style="fill:#1c2422;stroke:#000000;stroke-width:0.24743;stroke-linecap:butt;stroke-linejoin:miter;stroke-miterlimit:4;stroke-dasharray:none;stroke-opacity:1"
       d="m 60.531521,183.01997 v 2.06294"
       id="path1215-7-5" />
    <path
       style="fill:none;stroke:#000000;stroke-width:0.24743;stroke-linecap:butt;stroke-linejoin:miter;stroke-miterlimit:4;stroke-dasharray:none;stroke-opacity:1"
       d="m 81.588121,183.00509 v 2.06293"
       id="path1215-7-6" />
    <path
       style="fill:none;stroke:#000000;stroke-width:0.24743;stroke-linecap:butt;stroke-linejoin:miter;stroke-miterlimit:4;stroke-dasharray:none;stroke-opacity:1"
       d="m 102.72053,183.00867 v 2.06294"
       id="path1215-7-2" />
    <path
       style="fill:none;stroke:#000000;stroke-width:0.24743;stroke-linecap:butt;stroke-linejoin:miter;stroke-miterlimit:4;stroke-dasharray:none;stroke-opacity:1"
       d="m 123.7982,183.00666 v 2.06294"
       id="path1215-7-9" />
    <path
       style="fill:none;stroke:#000000;stroke-width:0.24743;stroke-linecap:butt;stroke-linejoin:miter;stroke-miterlimit:4;stroke-dasharray:none;stroke-opacity:1"
       d="m 144.95044,183.01414 v 2.06293"
       id="path1215-7-1" />
    <path
       style="fill:none;stroke:#000000;stroke-width:0.24743;stroke-linecap:butt;stroke-linejoin:miter;stroke-miterlimit:4;stroke-dasharray:none;stroke-opacity:1"
       d="m 166.03676,183.00341 v 2.06294"
       id="path1215-7-27" />
    <path
       style="fill:none;stroke:#000000;stroke-width:0.24743;stroke-linecap:butt;stroke-linejoin:miter;stroke-miterlimit:4;stroke-dasharray:none;stroke-opacity:1"
       d="m 187.12544,183.00815 v 2.06294"
       id="path1215-7-0" />
    <path
       style="fill:none;stroke:#000000;stroke-width:0.24743;stroke-linecap:butt;stroke-linejoin:miter;stroke-miterlimit:4;stroke-dasharray:none;stroke-opacity:1"
       d="m 208.24004,182.99403 v 2.06294"
       id="path1215-7-93" />
    <path
       style="fill:none;stroke:#000000;stroke-width:0.24743;stroke-linecap:butt;stroke-linejoin:miter;stroke-miterlimit:4;stroke-dasharray:none;stroke-opacity:1"
       d="m 229.35243,182.99201 v 2.06294"
       id="path1215-7-60" />
    <path
       style="fill:none;stroke:#000000;stroke-width:0.24743;stroke-linecap:butt;stroke-linejoin:miter;stroke-miterlimit:4;stroke-dasharray:none;stroke-opacity:1"
       d="m 250.50207,183.00396 v 2.06293"
       id="path1215-7-62" />
    <path
       style="fill:none;stroke:#000000;stroke-width:0.24743;stroke-linecap:butt;stroke-linejoin:miter;stroke-miterlimit:4;stroke-dasharray:none;stroke-opacity:1"
       d="m 271.56904,183.01414 v 2.06293"
       id="path1215-7-61" />
    <path
       style="fill:none;stroke:#000000;stroke-width:0.24743;stroke-linecap:butt;stroke-linejoin:miter;stroke-miterlimit:4;stroke-dasharray:none;stroke-opacity:1"
       d="m 292.62003,182.99853 v 2.06294"
       id="path1215-7-8" />
    <text
       xml:space="preserve"
       style="font-size:12.3472px;line-height:1.25;font-family:sans-serif;-inkscape-font-specification:sans-serif;stroke-width:0.264583"
       x="63.633106"
       y="25.88484"
       id="text2429"><tspan
         sodipodi:role="line"
         id="tspan2427"
         style="font-size:12.3472px;fill:#005593;fill-opacity:1;stroke-width:0.264583"
         x="63.633106"
         y="25.88484">Cremer Pople (Physics convention)</tspan></text>
    <text
       xml:space="preserve"
       style="font-size:12.3472px;line-height:1.25;font-family:sans-serif;-inkscape-font-specification:sans-serif;fill:#bd0037;fill-opacity:1;stroke-width:0.264583"
       x="13.8806"
       y="43.292023"
       id="text10023"><tspan
         sodipodi:role="line"
         id="tspan10021"
         style="font-size:12.3472px;fill:#bd0037;fill-opacity:1;stroke-width:0.264583"
         x="13.8806"
         y="43.292023">Mollweide projection (Mathematical convention)</tspan></text>
    <text
       xml:space="preserve"
       style="font-style:normal;font-variant:normal;font-weight:normal;font-stretch:normal;font-size:7.05556px;line-height:1.25;font-family:'Ubuntu Mono';-inkscape-font-specification:'Ubuntu Mono';fill:#005593;fill-opacity:1;stroke-width:0.264583"
       x="25.74725"
       y="61.070618"
       id="text18571"><tspan
         sodipodi:role="line"
         id="tspan18569"
         style="font-style:normal;font-variant:normal;font-weight:normal;font-stretch:normal;font-size:7.05556px;font-family:'Ubuntu Mono';-inkscape-font-specification:'Ubuntu Mono';fill:#005593;fill-opacity:1;stroke-width:0.264583"
         x="25.74725"
         y="61.070618">0</tspan><tspan
         sodipodi:role="line"
         style="font-style:normal;font-variant:normal;font-weight:normal;font-stretch:normal;font-size:7.05556px;font-family:'Ubuntu Mono';-inkscape-font-specification:'Ubuntu Mono';fill:#005593;fill-opacity:1;stroke-width:0.264583"
         x="25.74725"
         y="69.890068"
         id="tspan33701">(0°)</tspan></text>
    <text
       xml:space="preserve"
       style="font-style:normal;font-variant:normal;font-weight:normal;font-stretch:normal;font-size:7.05556px;line-height:1.25;font-family:'Ubuntu Mono';-inkscape-font-specification:'Ubuntu Mono';fill:#005593;fill-opacity:1;stroke-width:0.264583"
       x="28.952494"
       y="194.23306"
       id="text41235"><tspan
         sodipodi:role="line"
         id="tspan41233"
         style="font-style:normal;font-variant:normal;font-weight:normal;font-stretch:normal;font-family:'Ubuntu Mono';-inkscape-font-specification:'Ubuntu Mono';fill:#005593;fill-opacity:1;stroke-width:0.264583"
         x="28.952494"
         y="194.23306">0 (0°)</tspan></text>
    <text
       xml:space="preserve"
       style="font-style:normal;font-variant:normal;font-weight:normal;font-stretch:normal;font-size:7.05556px;line-height:1.25;font-family:'Ubuntu Mono';-inkscape-font-specification:'Ubuntu Mono';fill:#005593;fill-opacity:1;stroke:none;stroke-width:0.264583;stroke-opacity:1"
       x="276.9502"
       y="194.23306"
       id="text41811"><tspan
         sodipodi:role="line"
         style="font-style:normal;font-variant:normal;font-weight:normal;font-stretch:normal;font-family:'Ubuntu Mono';-inkscape-font-specification:'Ubuntu Mono';fill:#005593;fill-opacity:1;stroke:none;stroke-width:0.264583;stroke-opacity:1"
         x="276.9502"
         y="194.23306"
         id="tspan41813"><tspan
   style="font-style:normal;font-variant:normal;font-weight:normal;font-stretch:normal;font-size:5.64444px;font-family:'Ubuntu Mono';-inkscape-font-specification:'Ubuntu Mono';stroke:none;stroke-opacity:1"
   id="tspan135914">2</tspan><tspan
   style="font-style:normal;font-variant:normal;font-weight:normal;font-stretch:normal;font-family:sans-serif;-inkscape-font-specification:sans-serif"
   id="tspan93123">π</tspan> (360°)</tspan></text>
    <text
       xml:space="preserve"
       style="font-style:normal;font-variant:normal;font-weight:normal;font-stretch:normal;line-height:1.25;font-family:'Ubuntu Mono';-inkscape-font-specification:'Ubuntu Mono';baseline-shift:baseline;fill:#005593;fill-opacity:1;stroke-width:0.264583"
       x="161.51787"
       y="193.64688"
       id="text44615"><tspan
         sodipodi:role="line"
         id="tspan44613"
         style="font-style:normal;font-variant:normal;font-weight:normal;font-stretch:normal;font-family:'Ubuntu Mono';-inkscape-font-specification:'Ubuntu Mono';baseline-shift:baseline;fill:#005593;fill-opacity:1;stroke-width:0.264583"
         x="161.51787"
         y="193.64688"><tspan
           style="font-style:normal;font-variant:normal;font-weight:normal;font-stretch:normal;font-size:10.5833px;font-family:'Ubuntu Mono';-inkscape-font-specification:'Ubuntu Mono';fill:#005593;fill-opacity:1"
           id="tspan75805">φ</tspan><tspan
           id="tspan91333"
           style="font-style:normal;font-variant:normal;font-weight:normal;font-stretch:normal;font-size:65%;font-family:'Ubuntu Mono';-inkscape-font-specification:'Ubuntu Mono';baseline-shift:sub;fill:#005593;fill-opacity:1">2</tspan></tspan></text>
    <text
       xml:space="preserve"
       style="font-style:normal;font-variant:normal;font-weight:normal;font-stretch:normal;line-height:1.25;font-family:'Ubuntu Mono';-inkscape-font-specification:'Ubuntu Mono';baseline-shift:baseline;fill:#bd0037;fill-opacity:1;stroke-width:0.264583"
       x="18.205671"
       y="123.51751"
       id="text44615-6"><tspan
         sodipodi:role="line"
         id="tspan44613-3"
         style="font-style:normal;font-variant:normal;font-weight:normal;font-stretch:normal;font-size:10.5833px;font-family:'Ubuntu Mono';-inkscape-font-specification:'Ubuntu Mono';baseline-shift:baseline;fill:#bd0037;fill-opacity:1;stroke-width:0.264583"
         x="18.205671"
         y="123.51751">φ</tspan></text>
    <text
       xml:space="preserve"
       style="font-style:normal;font-variant:normal;font-weight:normal;font-stretch:normal;font-size:7.05556px;line-height:1.25;font-family:'Ubuntu Mono';-inkscape-font-specification:'Ubuntu Mono';fill:#bd0037;fill-opacity:1;stroke-width:0.264583"
       x="279.7724"
       y="203.35046"
       id="text41811-2"><tspan
         sodipodi:role="line"
         style="font-style:normal;font-variant:normal;font-weight:normal;font-stretch:normal;font-family:'Ubuntu Mono';-inkscape-font-specification:'Ubuntu Mono';fill:#bd0037;fill-opacity:1;stroke-width:0.264583"
         x="279.7724"
         y="203.35046"
         id="tspan41813-2"><tspan
   style="font-style:normal;font-variant:normal;font-weight:normal;font-stretch:normal;font-family:sans-serif;-inkscape-font-specification:sans-serif"
   id="tspan89755">π</tspan> (180°)</tspan></text>
    <text
       xml:space="preserve"
       style="font-style:normal;font-variant:normal;font-weight:normal;font-stretch:normal;font-size:10.5833px;line-height:1.25;font-family:'Ubuntu Mono';-inkscape-font-specification:'Ubuntu Mono';fill:#005593;fill-opacity:1;stroke-width:0.264583"
       x="29.917076"
       y="125.486"
       id="text58561"><tspan
         sodipodi:role="line"
         id="tspan58559"
         style="font-style:normal;font-variant:normal;font-weight:normal;font-stretch:normal;font-size:10.5833px;font-family:'Ubuntu Mono';-inkscape-font-specification:'Ubuntu Mono';fill:#005593;fill-opacity:1;stroke-width:0.264583"
         x="29.917076"
         y="125.486">θ</tspan></text>
    <text
       xml:space="preserve"
       style="font-style:normal;font-variant:normal;font-weight:normal;font-stretch:normal;font-size:10.5833px;line-height:1.25;font-family:'Ubuntu Mono';-inkscape-font-specification:'Ubuntu Mono';fill:#bd0037;fill-opacity:1;stroke-width:0.264583"
       x="163.39093"
       y="205.05966"
       id="text58561-2"><tspan
         sodipodi:role="line"
         id="tspan58559-9"
         style="font-style:normal;font-variant:normal;font-weight:normal;font-stretch:normal;font-size:10.5833px;font-family:'Ubuntu Mono';-inkscape-font-specification:'Ubuntu Mono';fill:#bd0037;fill-opacity:1;stroke-width:0.264583"
         x="163.39093"
         y="205.05966">θ</tspan></text>
    <g
       id="g143482"
       transform="translate(2.1415443,9.4303807)"
       style="stroke:#bd0037;stroke-opacity:1">
      <text
         xml:space="preserve"
         style="font-size:7.05556px;line-height:1.25;font-family:sans-serif;-inkscape-font-specification:sans-serif;fill:#bd0037;fill-opacity:1;stroke:none;stroke-width:0.314022;stroke-opacity:1"
         x="1.8649943"
         y="184.28329"
         id="text28497-3"
         transform="scale(1.1130579,0.89842586)"><tspan
           sodipodi:role="line"
           id="tspan28495-19"
           style="font-size:7.05556px;fill:#bd0037;fill-opacity:1;stroke:none;stroke-width:0.314022;stroke-opacity:1"
           x="1.8649943"
           y="184.28329">π</tspan></text>
      <path
         style="fill:#005593;fill-opacity:1;stroke:#bd0037;stroke-width:0.35;stroke-linecap:butt;stroke-linejoin:miter;stroke-miterlimit:4;stroke-dasharray:none;stroke-opacity:1"
         d="m 1.5156099,165.98521 h 5.913715"
         id="path121794" />
      <text
         xml:space="preserve"
         style="font-size:5.64444px;line-height:1.25;font-family:sans-serif;-inkscape-font-specification:sans-serif;fill:#bd0037;fill-opacity:1;stroke:none;stroke-width:0.264583;stroke-opacity:1"
         x="2.752677"
         y="170.67455"
         id="text123206"><tspan
           sodipodi:role="line"
           id="tspan123204"
           style="font-size:5.64444px;fill:#bd0037;fill-opacity:1;stroke:none;stroke-width:0.264583;stroke-opacity:1"
           x="2.752677"
           y="170.67455">2</tspan></text>
    </g>
    <g
       id="g146005"
       style="fill:#bd0037;fill-opacity:1"
       transform="translate(-2.0432813,12.096038)">
      <text
         xml:space="preserve"
         style="font-size:7.05556px;line-height:1.25;font-family:sans-serif;-inkscape-font-specification:sans-serif;fill:#bd0037;fill-opacity:1;stroke-width:0.314022"
         x="4.7769089"
         y="52.591148"
         id="text28497-3-0"
         transform="scale(1.1130579,0.89842586)"><tspan
           sodipodi:role="line"
           id="tspan28495-19-3"
           style="font-size:7.05556px;fill:#bd0037;fill-opacity:1;stroke-width:0.314022"
           x="4.7769089"
           y="52.591148">-π</tspan></text>
      <path
         style="fill:#bd0037;fill-opacity:1;stroke:#bd0037;stroke-width:0.35;stroke-linecap:butt;stroke-linejoin:miter;stroke-miterlimit:4;stroke-dasharray:none;stroke-opacity:1"
         d="M 6.2234714,47.66958 H 12.137186"
         id="path121794-6" />
      <text
         xml:space="preserve"
         style="font-size:5.64444px;line-height:1.25;font-family:sans-serif;-inkscape-font-specification:sans-serif;fill:#bd0037;fill-opacity:1;stroke:none;stroke-width:0.264583;stroke-opacity:1"
         x="7.4605384"
         y="52.358913"
         id="text123206-1"><tspan
           sodipodi:role="line"
           id="tspan123204-0"
           style="font-size:5.64444px;fill:#bd0037;fill-opacity:1;stroke:none;stroke-width:0.264583;stroke-opacity:1"
           x="7.4605384"
           y="52.358913">2</tspan></text>
    </g>
    <text
       xml:space="preserve"
       style="font-size:7.05556px;line-height:1.25;font-family:sans-serif;-inkscape-font-specification:sans-serif;stroke-width:0.264583"
       x="76.318016"
       y="202.70285"
       id="text8956"><tspan
         sodipodi:role="line"
         id="tspan8954"
         style="stroke-width:0.264583"
         x="76.318016"
         y="202.70285" /></text>
    <text
       xml:space="preserve"
       style="font-style:normal;font-variant:normal;font-weight:normal;font-stretch:normal;font-size:7.05556px;line-height:1.25;font-family:'Ubuntu Mono';-inkscape-font-specification:'Ubuntu Mono';fill:#bd0037;fill-opacity:1;stroke-width:0.264583"
       x="21.20533"
       y="203.35046"
       id="text8960"><tspan
         sodipodi:role="line"
         id="tspan8958"
         style="font-style:normal;font-variant:normal;font-weight:normal;font-stretch:normal;font-family:'Ubuntu Mono';-inkscape-font-specification:'Ubuntu Mono';fill:#bd0037;fill-opacity:1;stroke-width:0.264583"
         x="21.20533"
         y="203.35046">-<tspan
   style="font-style:normal;font-variant:normal;font-weight:normal;font-stretch:normal;font-family:sans-serif;-inkscape-font-specification:sans-serif"
   id="tspan86279">π</tspan> (-180°)</tspan></text>
    <text
       xml:space="preserve"
       style="font-size:7.05556px;line-height:1.25;font-family:'Ubuntu Mono';-inkscape-font-specification:'Ubuntu Mono';stroke-width:0.264583;fill:#bd0037;fill-opacity:1;font-weight:normal;font-style:normal;font-stretch:normal;font-variant:normal"
       x="2.8598759"
       y="69.890068"
       id="text33597"><tspan
         sodipodi:role="line"
         id="tspan33595"
         style="stroke-width:0.264583;fill:#bd0037;fill-opacity:1;-inkscape-font-specification:'Ubuntu Mono';font-family:'Ubuntu Mono';font-weight:normal;font-style:normal;font-stretch:normal;font-variant:normal"
         x="2.8598759"
         y="69.890068">(-90°)</tspan></text>
    <text
       xml:space="preserve"
       style="font-style:normal;font-variant:normal;font-weight:normal;font-stretch:normal;font-size:7.05556px;line-height:1.25;font-family:'Ubuntu Mono';-inkscape-font-specification:'Ubuntu Mono';fill:#005593;fill-opacity:1;stroke-width:0.264583"
       x="18.691715"
       y="176.64549"
       id="text34433"><tspan
         sodipodi:role="line"
         id="tspan34431"
         style="font-style:normal;font-variant:normal;font-weight:normal;font-stretch:normal;font-family:sans-serif;-inkscape-font-specification:sans-serif;fill:#005593;fill-opacity:1;stroke-width:0.264583"
         x="18.691715"
         y="176.64549">π</tspan><tspan
         sodipodi:role="line"
         style="font-style:normal;font-variant:normal;font-weight:normal;font-stretch:normal;font-family:'Ubuntu Mono';-inkscape-font-specification:'Ubuntu Mono';fill:#005593;fill-opacity:1;stroke-width:0.264583"
         x="18.691715"
         y="185.80309"
         id="tspan34435">(180°)</tspan></text>
    <text
       xml:space="preserve"
       style="font-style:normal;font-variant:normal;font-weight:normal;font-stretch:normal;font-size:7.05556px;line-height:1.25;font-family:'Ubuntu Mono';-inkscape-font-specification:'Ubuntu Mono';fill:#bd0037;fill-opacity:1;stroke-width:0.264583"
       x="2.8598759"
       y="185.80309"
       id="text35035"><tspan
         sodipodi:role="line"
         id="tspan35033"
         style="font-style:normal;font-variant:normal;font-weight:normal;font-stretch:normal;font-family:'Ubuntu Mono';-inkscape-font-specification:'Ubuntu Mono';fill:#bd0037;fill-opacity:1;stroke-width:0.264583"
         x="2.8598759"
         y="185.80309">(90°)</tspan></text>
    <circle
       style="fill:#000000;fill-opacity:1;fill-rule:evenodd;stroke:none;stroke-width:1.05833;stroke-linecap:round"
       id="path968"
       cx="166.03781"
       cy="58.447632"
       r="1.3285662" />
    <circle
       style="fill:#000000;fill-opacity:1;fill-rule:evenodd;stroke:none;stroke-width:1.05833;stroke-linecap:round"
       id="path968-5"
       cx="138.28242"
       cy="89.539032"
       r="1.3285662" />
    <circle
       style="fill:#000000;fill-opacity:1;fill-rule:evenodd;stroke:none;stroke-width:1.05833;stroke-linecap:round"
       id="path968-5-1"
       cx="90.92511"
       cy="121.72034"
       r="1.3285662" />
    <circle
       style="fill:#000000;fill-opacity:1;fill-rule:evenodd;stroke:none;stroke-width:1.05833;stroke-linecap:round"
       id="path968-5-2"
       cx="240.44029"
       cy="121.72034"
       r="1.3285662" />
    <circle
       style="fill:#000000;fill-opacity:1;fill-rule:evenodd;stroke:none;stroke-width:1.05833;stroke-linecap:round"
       id="path968-5-6"
       cx="165.94923"
       cy="89.539032"
       r="1.3285662" />
    <circle
       style="fill:#000000;fill-opacity:1;fill-rule:evenodd;stroke:none;stroke-width:1.05833;stroke-linecap:round"
       id="path968-5-6-6"
       cx="54.461109"
       cy="151.73593"
       r="1.3285662" />
    <circle
       style="fill:#000000;fill-opacity:1;fill-rule:evenodd;stroke:none;stroke-width:1.05833;stroke-linecap:round"
       id="path968-5-6-6-2"
       cx="263.51831"
       cy="151.73593"
       r="1.3285662" />
    <circle
       style="fill:#000000;fill-opacity:1;fill-rule:evenodd;stroke:none;stroke-width:1.05833;stroke-linecap:round"
       id="path968-3"
       cx="166.03676"
       cy="185.07622"
       r="1.3285662" />
    <text
       xml:space="preserve"
       style="font-style:normal;font-variant:normal;font-weight:normal;font-stretch:normal;font-size:7.05556px;line-height:1.25;font-family:'Ubuntu Mono';-inkscape-font-specification:'Ubuntu Mono';stroke-width:0.264583"
       x="160.91191"
       y="55.688324"
       id="text5192"><tspan
         sodipodi:role="line"
         id="tspan5190"
         style="font-style:normal;font-variant:normal;font-weight:normal;font-stretch:normal;font-family:'Ubuntu Mono';-inkscape-font-specification:'Ubuntu Mono';stroke-width:0.264583"
         x="160.91191"
         y="55.688324"><tspan
           style="font-style:normal;font-variant:normal;font-weight:normal;font-stretch:normal;font-size:65%;font-family:'Ubuntu Mono';-inkscape-font-specification:'Ubuntu Mono';baseline-shift:super"
           id="tspan81444">4′</tspan><tspan
           style="font-style:normal;font-variant:normal;font-weight:bold;font-stretch:normal;font-family:'Ubuntu Mono';-inkscape-font-specification:'Ubuntu Mono'"
           id="tspan92482">C</tspan><tspan
           style="font-style:normal;font-variant:normal;font-weight:normal;font-stretch:normal;font-size:65%;font-family:'Ubuntu Mono';-inkscape-font-specification:'Ubuntu Mono';baseline-shift:sub"
           id="tspan83876">1′</tspan></tspan></text>
    <text
       xml:space="preserve"
       style="font-style:normal;font-variant:normal;font-weight:normal;font-stretch:normal;font-size:7.05556px;line-height:1.25;font-family:'Ubuntu Mono';-inkscape-font-specification:'Ubuntu Mono';stroke-width:0.264583"
       x="133.10837"
       y="86.675331"
       id="text5192-3"><tspan
         sodipodi:role="line"
         id="tspan5190-5"
         style="font-style:normal;font-variant:normal;font-weight:normal;font-stretch:normal;font-family:'Ubuntu Mono';-inkscape-font-specification:'Ubuntu Mono';stroke-width:0.264583"
         x="133.10837"
         y="86.675331"><tspan
           style="font-style:normal;font-variant:normal;font-weight:normal;font-stretch:normal;font-size:65%;font-family:'Ubuntu Mono';-inkscape-font-specification:'Ubuntu Mono';baseline-shift:super"
           id="tspan120796">2′</tspan><tspan
           style="font-weight:bold"
           id="tspan43321">T</tspan><tspan
           style="font-style:normal;font-variant:normal;font-weight:normal;font-stretch:normal;font-size:65%;font-family:'Ubuntu Mono';-inkscape-font-specification:'Ubuntu Mono';baseline-shift:sub"
           id="tspan118118">3′</tspan></tspan></text>
    <text
       xml:space="preserve"
       style="font-style:normal;font-variant:normal;font-weight:normal;font-stretch:normal;font-size:7.05556px;line-height:1.25;font-family:'Ubuntu Mono';-inkscape-font-specification:'Ubuntu Mono';stroke-width:0.264583"
       x="258.33966"
       y="149.92001"
       id="text5192-3-6"><tspan
         sodipodi:role="line"
         id="tspan5190-5-1"
         style="font-style:normal;font-variant:normal;font-weight:normal;font-stretch:normal;font-family:'Ubuntu Mono';-inkscape-font-specification:'Ubuntu Mono';stroke-width:0.264583"
         x="258.33966"
         y="149.92001"><tspan
           style="font-style:normal;font-variant:normal;font-weight:normal;font-stretch:normal;font-size:65%;font-family:'Ubuntu Mono';-inkscape-font-specification:'Ubuntu Mono';baseline-shift:super"
           id="tspan149336">3′</tspan><tspan
           style="font-style:normal;font-variant:normal;font-weight:bold;font-stretch:normal;font-family:'Ubuntu Mono';-inkscape-font-specification:'Ubuntu Mono'"
           id="tspan151660">T</tspan><tspan
           style="font-style:normal;font-variant:normal;font-weight:normal;font-stretch:normal;font-size:65%;font-family:'Ubuntu Mono';-inkscape-font-specification:'Ubuntu Mono';baseline-shift:sub"
           id="tspan147444">2′</tspan></tspan></text>
    <text
       xml:space="preserve"
       style="font-style:normal;font-variant:normal;font-weight:normal;font-stretch:normal;font-size:7.05556px;line-height:1.25;font-family:'Ubuntu Mono';-inkscape-font-specification:'Ubuntu Mono';stroke-width:0.264583"
       x="85.751053"
       y="119.30662"
       id="text5192-3-7"><tspan
         sodipodi:role="line"
         id="tspan5190-5-0"
         style="font-style:normal;font-variant:normal;font-weight:normal;font-stretch:normal;font-family:'Ubuntu Mono';-inkscape-font-specification:'Ubuntu Mono';stroke-width:0.264583"
         x="85.751053"
         y="119.30662"><tspan
           style="font-style:normal;font-variant:normal;font-weight:normal;font-stretch:normal;font-size:65%;font-family:'Ubuntu Mono';-inkscape-font-specification:'Ubuntu Mono';baseline-shift:super"
           id="tspan131480">2′</tspan><tspan
           style="font-style:normal;font-variant:normal;font-weight:bold;font-stretch:normal;font-family:'Ubuntu Mono';-inkscape-font-specification:'Ubuntu Mono'"
           id="tspan133828">S</tspan><tspan
           style="font-style:normal;font-variant:normal;font-weight:normal;font-stretch:normal;font-size:65%;font-family:'Ubuntu Mono';-inkscape-font-specification:'Ubuntu Mono';baseline-shift:sub"
           id="tspan128454">4′</tspan></tspan></text>
    <text
       xml:space="preserve"
       style="font-style:normal;font-variant:normal;font-weight:normal;font-stretch:normal;font-size:7.05556px;line-height:1.25;font-family:'Ubuntu Mono';-inkscape-font-specification:'Ubuntu Mono';stroke-width:0.264583"
       x="235.31439"
       y="119.10448"
       id="text5192-3-7-9"><tspan
         sodipodi:role="line"
         id="tspan5190-5-0-3"
         style="font-style:normal;font-variant:normal;font-weight:normal;font-stretch:normal;font-family:'Ubuntu Mono';-inkscape-font-specification:'Ubuntu Mono';stroke-width:0.264583"
         x="235.31439"
         y="119.10448"><tspan
           style="font-style:normal;font-variant:normal;font-weight:normal;font-stretch:normal;font-size:65%;font-family:'Ubuntu Mono';-inkscape-font-specification:'Ubuntu Mono';baseline-shift:super"
           id="tspan142258">4′</tspan><tspan
           style="font-style:normal;font-variant:normal;font-weight:bold;font-stretch:normal;font-family:'Ubuntu Mono';-inkscape-font-specification:'Ubuntu Mono'"
           id="tspan134742">S</tspan><tspan
           style="font-style:normal;font-variant:normal;font-weight:normal;font-stretch:normal;font-size:65%;font-family:'Ubuntu Mono';-inkscape-font-specification:'Ubuntu Mono';baseline-shift:sub"
           id="tspan140084">2′</tspan></tspan></text>
    <text
       xml:space="preserve"
       style="font-style:normal;font-variant:normal;font-weight:normal;font-stretch:normal;font-size:7.05556px;line-height:1.25;font-family:'Ubuntu Mono';-inkscape-font-specification:'Ubuntu Mono';stroke-width:0.264583"
       x="162.3508"
       y="86.661949"
       id="text5192-3-2"><tspan
         sodipodi:role="line"
         id="tspan5190-5-9"
         style="font-style:normal;font-variant:normal;font-weight:normal;font-stretch:normal;font-family:'Ubuntu Mono';-inkscape-font-specification:'Ubuntu Mono';stroke-width:0.264583"
         x="162.3508"
         y="86.661949"><tspan
           style="font-style:normal;font-variant:normal;font-weight:bold;font-stretch:normal;font-family:'Ubuntu Mono';-inkscape-font-specification:'Ubuntu Mono'"
           id="tspan105860">E</tspan><tspan
           style="font-style:normal;font-variant:normal;font-weight:normal;font-stretch:normal;font-size:65%;font-family:'Ubuntu Mono';-inkscape-font-specification:'Ubuntu Mono';baseline-shift:sub"
           id="tspan107758">3′</tspan></tspan></text>
    <text
       xml:space="preserve"
       style="font-style:normal;font-variant:normal;font-weight:normal;font-stretch:normal;font-size:7.05556px;line-height:1.25;font-family:'Ubuntu Mono';-inkscape-font-specification:'Ubuntu Mono';stroke-width:0.264583"
       x="51.035877"
       y="149.6263"
       id="text5192-3-2-0"><tspan
         sodipodi:role="line"
         id="tspan5190-5-9-6"
         style="font-style:normal;font-variant:normal;font-weight:normal;font-stretch:normal;font-family:'Ubuntu Mono';-inkscape-font-specification:'Ubuntu Mono';stroke-width:0.264583"
         x="51.035877"
         y="149.6263"><tspan
           style="font-size:65%;baseline-shift:super"
           id="tspan32875">3′</tspan><tspan
           style="font-weight:bold"
           id="tspan37437">E</tspan></tspan></text>
    <text
       xml:space="preserve"
       style="font-style:normal;font-variant:normal;font-weight:normal;font-stretch:normal;font-size:7.05556px;line-height:1.25;font-family:'Ubuntu Mono';-inkscape-font-specification:'Ubuntu Mono';stroke-width:0.264583"
       x="160.82143"
       y="182.19618"
       id="text5192-6"><tspan
         sodipodi:role="line"
         id="tspan5190-7"
         style="font-style:normal;font-variant:normal;font-weight:normal;font-stretch:normal;font-family:'Ubuntu Mono';-inkscape-font-specification:'Ubuntu Mono';stroke-width:0.264583"
         x="160.82143"
         y="182.19618"><tspan
           style="font-style:normal;font-variant:normal;font-weight:normal;font-stretch:normal;font-size:65%;font-family:'Ubuntu Mono';-inkscape-font-specification:'Ubuntu Mono';baseline-shift:super"
           id="tspan163092">1′</tspan><tspan
           style="font-style:normal;font-variant:normal;font-weight:bold;font-stretch:normal;font-family:'Ubuntu Mono';-inkscape-font-specification:'Ubuntu Mono'"
           id="tspan160210">C</tspan><tspan
           style="font-style:normal;font-variant:normal;font-weight:normal;font-stretch:normal;font-size:65%;font-family:'Ubuntu Mono';-inkscape-font-specification:'Ubuntu Mono';baseline-shift:sub"
           id="tspan167360">4′</tspan></tspan></text>
    <text
       xml:space="preserve"
       style="font-size:10.5833px;line-height:1.25;font-family:'Ubuntu Mono';-inkscape-font-specification:'Ubuntu Mono';word-spacing:0px;stroke-width:0.264583"
       x="215.6627"
       y="224.97522"
       id="text96813"><tspan
         sodipodi:role="line"
         id="tspan96811"
         style="stroke-width:0.264583"
         x="215.6627"
         y="224.97522" /></text>
  </g>
</svg>
